<?xml version="1.0" standalone="no"?>
<!DOCTYPE svg PUBLIC "-//W3C//DTD SVG 1.1//EN" "http://www.w3.org/Graphics/SVG/1.1/DTD/svg11.dtd" >
<svg xmlns="http://www.w3.org/2000/svg">
<metadata>
Created by FontForge 20120731 at Thu Apr 20 12:52:58 2017
 By admin
</metadata>
<defs>
<font id="iconfont" horiz-adv-x="1024" >
  <font-face 
    font-family="iconfont"
    font-weight="500"
    font-stretch="normal"
    units-per-em="1024"
    panose-1="2 0 6 3 0 0 0 0 0 0"
    ascent="896"
    descent="-128"
    x-height="792"
    bbox="-0.0240974 -212.286 1078.67 896"
    underline-thickness="0"
    underline-position="0"
    unicode-range="U+0078-E97D"
  />
<missing-glyph 
 />
    <glyph glyph-name=".notdef" 
 />
    <glyph glyph-name=".notdef" 
 />
    <glyph glyph-name=".null" horiz-adv-x="0" 
 />
    <glyph glyph-name="nonmarkingreturn" horiz-adv-x="341" 
 />
    <glyph glyph-name="x" unicode="x" horiz-adv-x="1001" 
d="M281 543q-27 -1 -53 -1h-83q-18 0 -36.5 -6t-32.5 -18.5t-23 -32t-9 -45.5v-76h912v41q0 16 -0.5 30t-0.5 18q0 13 -5 29t-17 29.5t-31.5 22.5t-49.5 9h-133v-97h-438v97zM955 310v-52q0 -23 0.5 -52t0.5 -58t-10.5 -47.5t-26 -30t-33 -16t-31.5 -4.5q-14 -1 -29.5 -0.5
t-29.5 0.5h-32l-45 128h-439l-44 -128h-29h-34q-20 0 -45 1q-25 0 -41 9.5t-25.5 23t-13.5 29.5t-4 30v167h911zM163 247q-12 0 -21 -8.5t-9 -21.5t9 -21.5t21 -8.5q13 0 22 8.5t9 21.5t-9 21.5t-22 8.5zM316 123q-8 -26 -14 -48q-5 -19 -10.5 -37t-7.5 -25t-3 -15t1 -14.5
t9.5 -10.5t21.5 -4h37h67h81h80h64h36q23 0 34 12t2 38q-5 13 -9.5 30.5t-9.5 34.5q-5 19 -11 39h-368zM336 498v228q0 11 2.5 23t10 21.5t20.5 15.5t34 6h188q31 0 51.5 -14.5t20.5 -52.5v-227h-327z" />
    <glyph glyph-name="user" unicode="&#xe600;" 
d="M639 256q59 35 94 96t35 133q0 110 -76.5 187.5t-185 77.5t-185 -77.5t-76.5 -187.5q0 -73 36.5 -135t96.5 -96q-120 -40 -199.5 -139t-91.5 -228q-1 -14 8 -25t23.5 -12.5t25.5 7.5t12 24q13 139 115 232t241.5 93t241.5 -93t114 -232q2 -14 12 -23t23 -9h3
q14 2 23.5 13t7.5 25q-11 132 -93 232t-205 137zM314 485q0 81 56.5 138.5t136 57.5t136 -57.5t56.5 -138.5t-56.5 -138.5t-136 -57.5t-136 57.5t-56.5 138.5z" />
    <glyph glyph-name="shanchu" unicode="&#xe637;" 
d="M641 596v76h-259v-76h-171v-74h602v74h-172zM239 472l44 -537h458l44 537h-546zM426 37h-70v342h70v-342zM546 37h-69v342h69v-342zM670 37h-72v342h72v-342z" />
    <glyph glyph-name="shezhi" unicode="&#xe620;" horiz-adv-x="1064" 
d="M-49 -72zM1041 -72zM45 -41zM403 301q0 55 37.5 92.5t92.5 37.5t92.5 -37.5t37.5 -92.5t-37.5 -93t-92.5 -38t-92 38q-38 38 -38 93zM219 216q11 -39 33 -78l-86 -106l97 -97l106 86q37 -21 79 -34l14 -134h140l15 134q36 11 79 34l105 -86l98 97l-86 106q22 41 33 78
l134 15v140l-134 14q-10 32 -33 79l86 105l-98 99l-105 -87q-49 25 -79 34l-15 134h-140l-14 -134q-37 -11 -79 -34l-106 87l-97 -99l86 -105q-23 -45 -33 -79l-135 -14v-140zM1021 -41z" />
    <glyph glyph-name="paiming" unicode="&#xe613;" 
d="M64 220h224v-321h-224v321zM399 700h224v-801h-224v801zM735 412h224v-513h-224v513z" />
    <glyph glyph-name="tianchengzuo" unicode="&#xe601;" 
d="M732 431q5 1 9 2q20 5 14 37q-1 2 -1 3q0 -5 -4.5 -14t-13 -14t-20.5 8q-23 25 -42 40.5t-36 20.5t-21.5 6t-16.5 1q-7 0 -30.5 -7.5t-29.5 -4.5q-5 1 -8.5 10t-4.5 17l-1 8h11v17l-11 6v33h-13l-3 -34l-9 -6l-2 -16h14q0 -7 -2.5 -16t-5.5 -15l-3 -5q-52 16 -85 11
q-17 -3 -34 -14.5t-36 -29.5t-25 -23q-12 -7 -19.5 -2.5t-10.5 13.5l-3 10q-6 -11 0.5 -27.5t20.5 -18.5l-119 -255h-1q17 -25 51.5 -44t81.5 -20q19 -1 38 5.5t32 16t23.5 19.5t15.5 16.5l5 6.5l-116 256q4 2 7 5q5 3 24.5 21.5t36.5 25.5t44 7q17 0 30 -5.5t20 -12.5
t11.5 -14.5t5.5 -13.5l1 -5l-8 -286q1 -3 3 -6t4.5 -5t4.5 -4t4.5 -3.5t4 -2.5t2.5 -1l2 -1l-9 -1l-23 -3q-5 -30 -19.5 -60t-22 -39.5t-12.5 -14.5v0q18 -13 34.5 -17.5t55.5 -6.5q24 -1 45.5 4.5t31 11.5l9.5 6l-18 29l-24 -9q-26 -9 -42.5 -6t-24 8t-7.5 7
q17 -5 36.5 -1.5t35.5 9.5t15 9q-1 1 -4 10l-5.5 16.5l-2.5 7.5l-12 -8q-11 -9 -35 0q-9 4 -1 5q7 1 17 7t16 11l6 6q-2 3 -6.5 23.5t-8.5 39l-4 18.5q1 234 1 247q0 11 15.5 29t35.5 23q42 10 81 -28q28 -27 53 -29l-121 -259h-1q17 -25 51.5 -44t81.5 -20q19 -1 38 5.5
t32 16t23.5 19.5t15.5 16.5l5 6.5zM202 172l110 241l-2 -241h-108zM319 172v239l105 -239h-105zM615 172l110 241l-2 -241h-108zM732 172v239l105 -239h-105z" />
    <glyph glyph-name="tianchengzuo2" unicode="&#xe61d;" 
d="M732 431q5 1 9 2q20 5 14 37q-1 2 -1 3q0 -5 -4.5 -14t-13 -14t-20.5 8q-23 25 -42 40.5t-36 20.5t-21.5 6t-16.5 1q-7 0 -30.5 -7.5t-29.5 -4.5q-5 1 -8.5 10t-4.5 17l-1 8h11v17l-11 6v33h-13l-3 -34l-9 -6l-2 -16h14q0 -7 -2.5 -16t-5.5 -15l-3 -5q-52 16 -85 11
q-17 -3 -34 -14.5t-36 -29.5t-25 -23q-12 -7 -19.5 -2.5t-10.5 13.5l-3 10q-6 -11 0.5 -27.5t20.5 -18.5l-119 -255h-1q17 -25 51.5 -44t81.5 -20q19 -1 38 5.5t32 16t23.5 19.5t15.5 16.5l5 6.5l-116 256q4 2 7 5q5 3 24.5 21.5t36.5 25.5t44 7q17 0 30 -5.5t20 -12.5
t11.5 -14.5t5.5 -13.5l1 -5l-8 -286q1 -3 3 -6t4.5 -5t4.5 -4t4.5 -3.5t4 -2.5t2.5 -1l2 -1l-9 -1l-23 -3q-5 -30 -19.5 -60t-22 -39.5t-12.5 -14.5v0q18 -13 34.5 -17.5t55.5 -6.5q24 -1 45.5 4.5t31 11.5l9.5 6l-18 29l-24 -9q-26 -9 -42.5 -6t-24 8t-7.5 7
q17 -5 36.5 -1.5t35.5 9.5t15 9q-1 1 -4 10l-5.5 16.5l-2.5 7.5l-12 -8q-11 -9 -35 0q-9 4 -1 5q7 1 17 7t16 11l6 6q-2 3 -6.5 23.5t-8.5 39l-4 18.5q1 234 1 247q0 11 15.5 29t35.5 23q42 10 81 -28q28 -27 53 -29l-121 -259h-1q17 -25 51.5 -44t81.5 -20q19 -1 38 5.5
t32 16t23.5 19.5t15.5 16.5l5 6.5zM202 172l110 241l-2 -241h-108zM319 172v239l105 -239h-105zM615 172l110 241l-2 -241h-108zM732 172v239l105 -239h-105z" />
    <glyph glyph-name="jiantou" unicode="&#xe6b7;" 
d="M583 477v142l334 -333l-334 -334v142h-420v383h420z" />
    <glyph glyph-name="qiehuan" unicode="&#xe749;" 
d="M918 246l-315 -391q-3 -4 -9 -4v245v163v490h81v-490h233q7 0 10 -4.5t0 -8.5zM349 341h-233q-7 0 -10 4.5t0 8.5l315 391q3 4 9 4v-245v-163v-490h-81v490z" />
    <glyph glyph-name="tuichu" unicode="&#xe618;" 
d="M309 552q-36 -25 -63.5 -57t-47.5 -69.5t-30 -79t-10 -83.5q0 -74 28 -138.5t76 -112t112.5 -76t137.5 -28.5t137.5 28.5t112.5 76t76 112t28 138.5q0 42 -10 82t-28 76.5t-45 68t-60 57.5q-18 12 -38 9t-33 -19.5t-9.5 -37t19.5 -33.5q50 -36 76.5 -89t26.5 -114
q0 -52 -19.5 -98.5t-54 -81t-81 -54.5t-98.5 -20t-98.5 20t-80.5 54.5t-54.5 81t-20.5 98.5q0 61 28.5 116t80.5 91q17 12 20.5 32.5t-8.5 37.5t-32.5 20.5t-37.5 -8.5v0zM512 260q21 0 35.5 15t14.5 35v301q0 20 -14.5 35t-35.5 15t-35.5 -15t-14.5 -35v-301
q0 -20 14.5 -35t35.5 -15v0z" />
    <glyph glyph-name="jiantou1" unicode="&#xe657;" 
d="M551 259v80l187 -187l-187 -186v79h-234v214h234z" />
    <glyph glyph-name="qiehuan1" unicode="&#xe665;" 
d="M780 709h-524q-61 0 -107 -44.5t-46 -104.5v-524q0 -60 45.5 -103t107.5 -43h524q60 0 101 42.5t41 103.5v524q0 61 -41 105t-101 44zM514 382l-79 -78l-84 85l-86 -87l1 247h249l-86 -84zM777 38h-249l86 86l-85 85l78 79l85 -85l85 85v-250z" />
    <glyph glyph-name="shezhi1" unicode="&#xe651;" 
d="M946 322q0 16 -8.5 27.5t-22.5 13.5q-8 2 -28.5 5t-37.5 6t-20 4q-5 0 -10 4t-6 7q0 2 -12 30q-5 12 5 25q5 8 48 68q7 8 6 23t-11 25l-56 56q-7 7 -20.5 7t-22.5 -7l-72 -51q-1 0 -3 -1t-7.5 -2.5t-9.5 1.5l-34 14q-7 5 -10 20q0 4 -14 82q-2 13 -13 21.5t-24 8.5h-75
q-12 0 -22.5 -9.5t-12.5 -20.5l-14 -84q-1 -7 -3.5 -11.5t-5.5 -5.5l-2 -2l-30 -12q-8 -3 -13.5 -1.5t-17 9t-62.5 43.5q-15 9 -28 7.5t-22 -11t-51 -50.5q-10 -11 -9.5 -26t10.5 -29q11 -15 41 -58q12 -17 9 -27q-2 -6 -12 -28q-3 -8 -8.5 -11t-19.5 -6q-9 -2 -39 -7
t-38 -6q-14 -3 -22.5 -14.5t-8.5 -27.5v-65q0 -35 39 -42q23 -4 74 -12q16 -3 22 -16l9 -22q4 -9 3.5 -15t-8.5 -17q-9 -13 -46 -65q-8 -13 -6 -26.5t11 -22.5q10 -11 49 -49q11 -11 25.5 -12t28.5 8q15 11 65 47q13 9 28 3q5 -2 22 -9q13 -6 17 -24q2 -11 13 -79
q6 -33 41 -33h62q39 0 45 31l14 84q2 13 14 18q5 3 27 12q12 6 27 -6q7 -4 64 -45q28 -19 52 5q11 10 49 48q12 15 12 27.5t-7 23.5t-50 71q-8 11 -2 24q2 5 12 25q5 11 18 13q9 2 84 15q31 5 31 40v66zM909 255q0 -10 -9 -12q-1 0 -12 -2t-23.5 -4t-26 -4.5t-20.5 -3.5
q-29 -5 -38 -28q-4 -8 -11 -27q-10 -25 3 -42q1 -3 14 -21t23.5 -32.5t12.5 -17.5q6 -10 -1 -17l-13 -13l-22 -22l-13 -13q-8 -7 -19 0q-1 1 -13 9t-26 18t-25 18q-23 16 -49 6q-21 -9 -22 -9q-27 -11 -34 -49q-1 -7 -4 -24.5t-5 -30t-3 -15.5q-1 -11 -13 -11h-65
q-11 0 -15 12q-4 13 -12 74q-2 14 -9.5 25.5t-15.5 15.5q-25 10 -28 11q-29 12 -51 -4q-3 -2 -19.5 -14t-29.5 -21.5t-16 -11.5q-11 -7 -18 0l-47 47q-8 8 0 20l41 58q21 29 10 54q-3 6 -4.5 9.5t-2 5t-2 4.5t-4.5 10q-9 21 -38 26q-76 14 -77 14q-12 2 -12 14v66
q0 11 13 13q1 0 15.5 2.5t31.5 5.5t26 5q34 5 43 29l11 27q11 25 -7 50q-44 60 -45 62q-7 11 1 19l13 13l22 22l12 12q9 8 18 1q53 -38 64 -46q24 -17 49 -6q19 8 27 11q24 9 29 40q12 74 12.5 77.5t4 7t7.5 3.5h70q10 0 11 -9l4 -21t7 -40.5t4 -24.5q2 -9 10 -19.5
t16 -13.5q30 -13 31 -13q8 -3 19.5 -2t16.5 4q73 51 76 53q8 6 17 -3l13.5 -13.5l22.5 -22.5l12 -12q6 -6 1 -14q-1 0 -7.5 -9.5t-13.5 -19.5t-15 -21.5t-12 -16.5q-16 -23 -5 -49l9 -22q12 -28 34 -32q83 -13 84 -14q12 -1 12 -13l-0.5 -18t-0.5 -33t1 -17zM527 489
q-83 0 -141.5 -58.5t-58.5 -141.5t58.5 -141.5t141.5 -58.5t141.5 58.5t58.5 141.5t-58.5 141.5t-141.5 58.5zM526.5 124q-68.5 0 -116.5 48.5t-48 117t48 116.5t116.5 48t117 -48t48.5 -116.5t-48.5 -117t-117 -48.5z" />
    <glyph glyph-name="shanchu1" unicode="&#xe6a7;" 
d="M641 556v128h-259v-128h-190v-64h640v64h-191zM256 -84h512v512h-512v-512zM576 300h64v-256h-64v256zM384 300h64v-256h-64v256z" />
    <glyph glyph-name="bangzhu" unicode="&#xe608;" 
d="M512 748q-91 0 -174 -35.5t-143 -95.5t-95.5 -143t-35.5 -174q0 -115 55 -215q3 -10 10 -17q12 -12 29 -12t29 11.5t12 28.5l-1 4q0 6 -1 11q-3 10 -10 17q-43 80 -43 173q0 99 49 184t134 134t184.5 49t184 -49t133.5 -134t49 -184.5t-49 -184t-133.5 -133.5t-184.5 -49
q-118 0 -214 68q-6 8 -15 12q-8 3 -16 3q-17 0 -29 -12t-12 -28v-4q0 -13 7 -23q8 -12 22 -16q115 -82 258 -82q91 0 174 35.5t143 95.5t95.5 143t35.5 174t-35.5 174t-95.5 143t-143 95.5t-174 35.5zM511 125q-19 0 -32.5 -13.5t-13.5 -32.5l1 -1q0 -19 13 -32.5t32 -13.5
t32.5 13.5t13.5 32.5v1q0 19 -13.5 32.5t-32.5 13.5zM335 391q1 -16 12 -27t27 -11t27.5 11t12.5 27v0q0 41 28.5 69.5t69 28.5t69.5 -28.5t29 -69t-29 -69.5t-69 -29v0h-0.5h-0.5q-16 0 -27.5 -11.5t-11.5 -27.5v-54v0q0 -16 11.5 -27.5t28 -11.5t28 11.5t11.5 27.5v0v19
q59 13 98.5 61.5t39.5 110.5q0 73 -52 125t-125 52t-124.5 -51t-52.5 -124v-0.5v-0.5v0v-1v0z" />
    <glyph glyph-name="guanyuwomen" unicode="&#xe655;" 
d="M503.5 325q44.5 0 76 33.5t31.5 80t-31.5 80t-75.5 33.5q-51 0 -84 -43q-2 -1 -3 -2l-2 -4q-19 -29 -19 -64q0 -47 31.5 -80.5t76 -33.5zM504 528q25 0 46 -15q-17 -1 -50 -20q-25 -13 -58 6q26 29 62 29zM431 483q24 -15 47 -15q17 0 31 8q27 15 39.5 17.5t22.5 -3.5
l2 -1q15 -23 15 -50q0 -37 -24.5 -63.5t-59.5 -26.5t-59.5 26.5t-24.5 63.5q0 23 11 44zM721 214q3 0 3 3l16 92q0 2 -2 3q-11 8 -11 22q0 13 10 21q2 2 1.5 4.5t-2.5 2.5q-22 5 -40 20q-2 2 -4 1q-39 -21 -61 -69q41 -39 61 -100h29zM810 382q-17 -15 -39 -20
q-2 0 -2.5 -2.5t0.5 -4.5q10 -8 10 -21q0 -14 -11 -22q-2 -1 -1 -3l15 -92q1 -3 4 -3h108q2 0 3 1t1 2q-1 58 -23.5 101.5t-60.5 64.5q-2 1 -4 -1zM753.5 383q34.5 0 59 26t24.5 62.5t-24.5 62.5t-59.5 26q-41 0 -66 -34l-1 -1q-1 -1 -2 -3q-15 -23 -15 -50q0 -37 25 -63
t59.5 -26zM753 541q20 0 36 -11q-13 -1 -38 -16q-20 -10 -46 5q20 22 48 22zM697 507q19 -12 36 -12q13 0 24 6q22 12 31.5 13.5t17.5 -2.5l1 -1q12 -18 12 -39q0 -29 -19 -49.5t-46.5 -20.5t-46.5 20.5t-19 49.5q0 18 9 35zM130 214h108q3 0 4 3l15 92q1 2 -1 3
q-12 8 -12 22q0 13 11 21q1 2 0.5 4.5t-2.5 2.5q-22 5 -39 20q-2 2 -4 1q-38 -21 -60.5 -64.5t-23.5 -101.5q0 -1 1 -2t3 -1zM328 382q-18 -15 -40 -20q-2 0 -2.5 -2.5t1.5 -4.5q10 -8 10 -21q0 -14 -11 -22q-2 -1 -2 -3l16 -92q0 -3 3 -3h12q24 70 73 110q-22 40 -56 59
q-3 1 -4 -1zM270.5 383q34.5 0 59.5 26t25 62.5t-25 62.5t-59 26q-41 0 -67 -34l-1 -1q-1 -1 -1 -3q-15 -23 -15 -50q0 -37 24.5 -63t59 -26zM271 541q19 0 36 -11q-14 -1 -39 -16q-20 -10 -45 5q19 22 48 22zM214 507q19 -12 37 -12q13 0 24 6q21 12 30.5 13.5t17.5 -2.5
l2 -1q11 -18 11 -39q0 -29 -19 -49.5t-46.5 -20.5t-46.5 20.5t-19 49.5q0 18 9 35zM470 263q0 16 13 27q3 2 2 5t-4 3q-28 6 -50 26q-3 2 -5 1q-49 -27 -77.5 -83t-29.5 -129q0 -2 1.5 -3.5t3.5 -1.5h138q4 0 5 4l20 118q0 3 -2 4q-15 11 -15 29zM577 324q-22 -19 -51 -26
q-2 0 -3 -3t1 -5q13 -11 13 -27q0 -18 -14 -28q-2 -2 -2 -5l20 -118q1 -4 4 -4h139q2 0 3.5 1.5t1.5 3.5q-2 73 -30 129t-77 83q-3 1 -5 -1z" />
    <glyph glyph-name="youxiang" unicode="&#xe624;" 
d="M886 604h-748q-31 0 -53 -22t-22 -53v-458q0 -31 22 -53t53 -22h748q31 0 53 22t22 53v458q0 31 -22 53t-53 22v0zM868 550l-298 -264q-39 -35 -58 -35t-58 35l-298 264h712v0zM119 88v414l233 -205l-233 -209v0zM158 50l234 207l38 -34q34 -29 82 -29t82 29l38 34
l234 -207h-708v0zM905 88l-233 209l233 205v-414v0zM905 88z" />
    <glyph glyph-name="ren01" unicode="&#xe621;" 
d="M702 540q-4 34 -30 56t-60 22h-107v0h-93q-34 0 -59.5 -22.5t-30.5 -55.5q-1 -5 -1 -9v-185v-121q0 -16 10.5 -27.5t25.5 -11.5t25.5 11.5t10.5 27.5v47v230h14v-641q0 -21 14 -36t33.5 -15t33 15t13.5 36v302h22v1v-303q0 -21 13.5 -36t33 -15t33.5 15t14 36v642h14
v-278q0 -16 10.5 -27.5t25.5 -11.5t25.5 11.5t10.5 27.5v306q0 5 -1 9zM509.5 643q30.5 0 52 21.5t21.5 52t-21.5 52t-52 21.5t-52 -21.5t-21.5 -52t21.5 -52t52 -21.5z" />
    <glyph glyph-name="iconfontxuexiaoguanli" unicode="&#xe632;" 
d="M255 -43v357h39v44h-200v-40h39v-361h122v0zM32 397h967q18 8 17.5 22t-16.5 25q-10 6 -131.5 93.5t-237.5 171.5l-116 84q-460 -335 -483 -349q-18 -11 -18.5 -25t18.5 -22zM515 628q29 0 49.5 -20.5t20.5 -49.5t-20.5 -49.5t-49.5 -20.5t-49.5 20.5t-20.5 49.5
t20.5 49.5t49.5 20.5zM56 -122h919v39h-919v-39zM16 -202h999v36h-999v-36zM576 -43v359h39v39h-199v-37h39v-361h121v0zM895 -43v359h39v39h-199v-37h39v-361h121v0z" />
    <glyph glyph-name="houdongfangiconfont16" unicode="&#xe63d;" 
d="M923 -17l-171 118v515l171 -118v-515zM649 106l-274 -138v526l273 139v-527h1zM272 -16l-171 118v514l171 -118v-514zM1006 559v0q-2 1 -3 2t-2 1l-269 188q-13 10 -32 10q-11 0 -23 -5l-348 -177l-246 172q-14 10 -32 10q-21 0 -36 -14t-15 -33v-635q0 -27 24 -40
l270 -189q12 -9 31 -9q13 0 24 6l346 175l248 -172q15 -9 29 -9q21 0 36 14t15 33v635q3 21 -17 37z" />
    <glyph glyph-name="54r2" unicode="&#xe6cc;" horiz-adv-x="1025" 
d="M512 812q103 1 197.5 -40t163.5 -109.5t110 -163.5t41 -198q0 -101 -39.5 -195t-107.5 -164t-163.5 -111.5t-201.5 -42.5q-104 -1 -199 40t-164 110t-109.5 164.5t-39.5 200.5q1 108 43.5 204t113 163t163.5 105.5t192 36.5zM512 656q-2 -4 -2 -5q-8 -17 -23 -52.5
t-23 -52.5q-34 -77 -51 -115q-2 -6 -8 -6q-8 -1 -23 -2.5t-18 -1.5q-13 -1 -39.5 -3t-39.5 -4q-16 -1 -49 -4t-50 -4q-5 -1 -24 -2l3 -3l1 -1l181 -156q6 -5 4 -11q-15 -64 -44 -191q-2 -8 -5.5 -24t-4.5 -22q2 0 9 4q100 60 200 121q6 4 13 0q29 -18 62.5 -38t74 -44.5
t63.5 -38.5q5 -3 9 -5q-1 4 -3 11.5t-3 11.5q-49 202 -53 216q-2 5 2 9q2 1 4 3l2 2q83 71 177 153q2 1 1 2q0 1 -13 2q-70 6 -110 10q-75 6 -112 9q-11 1 -16 11q-22 53 -78 187q-5 13 -14 34z" />
    <glyph glyph-name="qiehuan2" unicode="&#xe603;" 
d="M386 40zM904 178q-15 0 -25.5 10.5t-10.5 25.5l1 210q0 29 -20.5 49.5t-49.5 20.5h-527l123 -112l-50 -51l-213 198l186 200l49 -49l-106 -116h538q59 0 99.5 -38.5t40.5 -97.5v-214q0 -15 -10 -25.5t-25 -10.5zM167 388v-70v-140q0 -29 20.5 -49.5t49.5 -20.5h547
l-115 115l49 50l176 -176l-176 -190l-49 50l81 80h-513q-58 0 -99 41.5t-41 99.5v140v35v35q0 15 10 25.5t24.5 10.5t25 -10.5t10.5 -25.5z" />
    <glyph glyph-name="wenhao" unicode="&#xe612;" 
d="M921 300q0 111 -54.5 205.5t-149 149t-205.5 54.5t-205.5 -54.5t-149 -149t-54.5 -205.5t54.5 -205.5t149 -149t205.5 -54.5q136 0 246 83q5 6 5 12q0 8 -5 13t-13 5t-13 -5v0q-99 -73 -220 -73q-100 0 -185.5 50t-135 135t-49.5 186t49.5 186.5t135 135t186 49.5
t186 -49.5t135 -135t49.5 -186.5q0 -93 -42 -173v0q-1 -4 -1 -6q0 -7 5.5 -12.5t12.5 -5.5q13 0 17 12v0q46 90 46 188zM498 91zM465 91q0 13 9.5 22.5t23 9.5t23 -9.5t9.5 -22.5t-9.5 -22.5t-23 -9.5t-23 9.5t-9.5 22.5zM576 295q21 11 32 18t27 20.5t23.5 32.5t7.5 44
q0 58 -45.5 95t-117.5 37q-53 0 -95.5 -27.5t-58.5 -72.5q-11 -30 -5 -56q2 -9 9.5 -13.5t16 -2.5t13.5 9.5t3 16.5q-3 14 3 31q11 30 41 51t73 21q53 0 86.5 -25t33.5 -64q0 -28 -15 -43t-52 -33q-18 -10 -28 -16t-24.5 -18t-21 -27.5t-6.5 -35.5v-53q0 -9 6 -15.5t15 -6.5
t15.5 6.5t6.5 15.5v53q0 19 12.5 30.5t44.5 27.5z" />
    <glyph glyph-name="jinlingyingcaiwangtubiao31" unicode="&#xe6be;" 
d="M513 179l426 397q-17 10 -37 10h-779q-19 0 -36 -10zM961 20q12 17 12 38v458q0 15 -7 29l-284 -265l279 -260v0zM59 545q-6 -14 -6 -29v-458q0 -21 11 -38l280 260zM652 252l-139 -129l-139 129l-278 -259q13 -6 27 -6h779q15 0 28 6z" />
    <glyph glyph-name="commdbr" unicode="&#xe7c8;" 
d="M757 204q-12 6 -35 6h-83v-97h81q24 0 36 6q21 10 21 41q0 33 -20 44zM397 -119q-114 11 -197 42q-59 23 -92 53q-30 29 -30 60v36.5v37.5q94 -74 265 -101q-7 33 -9 63q-84 13 -146 39q-53 22 -82 50q-28 28 -28 57v76q95 -75 269 -101q8 31 21 59q-103 12 -176 42
q-55 22 -86 51q-28 28 -28 58v78q53 -43 137 -71q103 -33 228 -39q13 0 16 3q39 35 94 60q-182 -10 -322 33q-64 20 -104 48q-48 35 -49 75t47 75q39 29 102 49q96 30 218 35q129 5 241 -20q118 -28 173 -77q30 -28 31 -60q1 -37 -40 -70q-39 -31 -117 -57q53 -5 91 -19
q8 -3 11 -1q28 15 55 36v-32.5v-32.5q31 -18 61 -45q1 40 1 105v105q5 63 -56 115q-38 32 -96 58q-83 36 -192 50q-133 17 -265 -2q-111 -17 -193 -56q-56 -27 -90 -62q-42 -41 -44 -88v-561q1 -51 48 -96q56 -52 159 -86q107 -33 234 -37q-34 32 -53 60q-4 5 -7 5zM996 180
q-28 102 -113 165q-89 65 -199 59q-65 -4 -124 -34.5t-99 -82.5q-71 -89 -66 -203q4 -109 76 -191q69 -80 173 -99q109 -22 206 33q92 51 133 148q43 100 13 205zM859 -89h-83q-4 12 -5 20q-3 15 -3 31l-1 34q0 34 -11.5 45.5t-42.5 11.5h-74v-142h-73v362h172
q36 -1 56 -9.5t34 -25.5q12 -13 18.5 -30t6.5 -38q0 -26 -13 -51t-43 -35q25 -10 35.5 -28.5t10.5 -56.5v-24q0 -25 2 -34q3 -14 14 -20v-10v0z" />
    <glyph glyph-name="iocnnianyuekongjian" unicode="&#xe61b;" 
d="M811 727v-43h-128v43h-384v-43h-128v43h-128v-854h896v854h-128zM896 -84h-811v640h811v-640zM171 385h128v-42h-128v42zM256 343h43v-128h-43v128zM171 257h85v-42h-85v42zM171 215h42v-128h-42v128zM213 129h86v-42h-86v42zM341 343h43v-214h-43v214zM427 343h42v-214
h-42v214zM384 385h43v-42h-43v42zM384 129h43v-42h-43v42zM341 385h43v-42h-43v42zM341 129h43v-42h-43v42zM427 129h42v-42h-42v42zM427 385h42v-42h-42v42zM512 385h85v-42h-85v42zM555 343h42v-256h-42v256zM512 129h128v-42h-128v42zM683 385h42v-128h-42v128zM683 257
h128v-42h-128v42zM768 215h43v-128h-43v128zM683 129h85v-42h-85v42zM725 385h86v-42h-86v42z" />
    <glyph glyph-name="iconguanyuwomen" unicode="&#xe679;" 
d="M879 636h-227q-67 0 -114 -44q-14 -13 -26 -33q-12 20 -25 33q-48 44 -114 44h-227q-9 0 -15.5 -6t-6.5 -14v-571q0 -8 6.5 -14t15.5 -6h204q13 0 26 -3q13 -2 25 -6l103 -39h0.5h0.5q4 -1 7.5 -1t6.5 1h1v0l99 37q15 5 29.5 8t30.5 3h200q9 0 15 6t6 14v571q0 8 -6 14
t-15 6zM491 27v0l-74 27q-17 6 -33.5 9t-33.5 3h-183v529h206q49 0 83.5 -32.5t34.5 -79.5v-456zM857 66h-178q-20 0 -38 -3q-20 -4 -37 -11l-70 -25v456q0 47 34.5 79.5t83.5 32.5h205v-529z" />
    <glyph glyph-name="bangzhu1" unicode="&#xe663;" 
d="M881 497q1 7 1 9q40 48 44 51q8 8 24.5 20.5t23.5 18.5q44 39 38.5 99t-56.5 89q-80 47 -173 15q-37 -13 -61 -53.5t-19 -84.5h88q5 19 5 20q13 49 54 51q44 2 58 -32q17 -41 -25 -76q-8 -6 -23.5 -17t-21.5 -15q-49 -38 -36 -95h79v0zM847 446q-25 0 -41 -17.5
t-16 -42.5q1 -24 18 -39.5t41 -15t40.5 16.5t16.5 40q0 25 -17 42t-42 16v0zM673 649q27 -25 43 -41q16 -17 24 -28t10 -19t2 -14v-16h-146q-10 0 -17.5 7.5t-11.5 17.5q-5 9 -7.5 20t-2.5 16v123h3q8 0 16 -2q8 -3 19 -10t27 -20q17 -13 41 -34v0v0zM504 591q0 -19 6 -41
q6 -21 19 -39t33 -30t46 -12h144v-557q0 -29 -11 -52t-30 -38.5t-41.5 -24.5t-44.5 -9h-486q-19 0 -41.5 11t-41.5 28.5t-32 40.5t-13 47v673q0 20 10 43q9 22 25 41q17 18 37 31q21 12 44 12h377v-124v0v0zM567 -25q25 0 43 18t18 44t-18 43.5t-43 17.5h-371
q-26 0 -43.5 -17.5t-17.5 -43.5t17.5 -44t43.5 -18h371v0v0zM628 283q0 26 -18 44t-43 18h-371q-26 0 -43.5 -18t-17.5 -43.5t17.5 -43.5t43.5 -18h371q25 0 43 17.5t18 43.5v0v0zM628 283z" />
    <glyph glyph-name="lianxiwomen" unicode="&#xe6c3;" 
d="M896 366q-1 104 -53 191.5t-140.5 138.5t-192.5 51t-192.5 -51t-140.5 -138.5t-53 -191.5q-58 -47 -58 -121q0 -64 45 -109.5t109 -45.5q56 0 98 36l-72 271q-14 2 -26 2q-8 0 -16 -1q14 116 101 194t205 78t205 -78t101 -194q-8 1 -16 1q-12 0 -26 -2l-72 -271
q32 -27 73 -33q-57 -61 -136 -85l-6 -7q-12 23 -34.5 37t-49.5 14q-40 0 -68.5 -28.5t-28.5 -68.5t28.5 -68t68.5 -28q32 0 57.5 19.5t34.5 49.5q79 19 143.5 69t103.5 121q30 22 48 55t18 72q0 74 -58 121z" />
    <glyph glyph-name="guanyuwomen1" unicode="&#xe609;" 
d="M936 682h-263q-77 0 -131 -52q-16 -15 -30 -38q-14 23 -30 38q-54 52 -131 52h-263q-10 0 -17.5 -7t-7.5 -17v-660q0 -10 7.5 -17t17.5 -7h236q16 0 30 -2q15 -3 29 -8l120 -44v0h1q4 -2 8 -2t8 2h0.5h0.5l115 42q17 6 34 9t35 3h231q10 0 17.5 7t7.5 17v660
q0 10 -7.5 17t-17.5 7zM363.5 18.5q-19.5 3.5 -39.5 3.5h-211v612h238q56 0 96 -38t40 -92v-527l-86 31q-18 7 -37.5 10.5zM911 22h-206q-23 0 -44 -4q-23 -4 -43 -11l-81 -30v527q0 54 40 92t96 38h238v-612z" />
    <glyph glyph-name="r" unicode="&#xe650;" 
d="M512 832q-122 0 -225 -60t-163 -163t-60 -225t60 -225t163 -163t225 -60t225 60t163 163t60 225t-60 225t-163 163t-225 60zM512 0q-159 0 -271.5 112.5t-112.5 271.5t112.5 271.5t271.5 112.5t271.5 -112.5t112.5 -271.5t-112.5 -271.5t-271.5 -112.5zM703 179l-111 149
h1q49 15 80 57t31 95q0 66 -47 113t-113 47h-128q-13 0 -22.5 -9.5t-9.5 -22.5v-448q0 -13 9.5 -22.5t22.5 -9.5t22.5 9.5t9.5 22.5v160h69l135 -179q8 -11 21 -13t23.5 6t12.5 21t-6 24zM448 384v192h96q40 0 68 -28t28 -68t-28 -68t-68 -28h-96z" />
    <glyph glyph-name="yonghufenxi" unicode="&#xe684;" 
d="M509 872q-102 0 -195 -39.5t-160 -106.5t-107 -160t-40 -195t40 -195t107 -160t160 -107t195 -40t195 40t160 107t106.5 160t39.5 195t-39.5 195t-106.5 160t-160 106.5t-195 39.5zM509 -106q-97 0 -185.5 37.5t-152.5 101.5t-101.5 152.5t-37.5 185.5t37.5 185.5
t101.5 152t152.5 101.5t185.5 38t185.5 -38t152 -101.5t101.5 -152t38 -185.5t-38 -185.5t-101.5 -152.5t-152 -101.5t-185.5 -37.5zM577 132q-38 0 -62 30q-16 19 -18.5 43.5t9.5 46.5q-51 38 -124 93q-17 -8 -35 -6q-20 -35 -37 -64q25 -33 6 -70q-8 -16 -23.5 -25
t-32.5 -9h-8q-42 6 -54 45q-10 31 9 57q23 32 62 26q20 36 34 60q-16 16 -20.5 38t4.5 42.5t29 32.5t43 11q22 -2 39.5 -16.5t23.5 -36.5q8 -27 -5 -52q57 -42 124 -92q20 10 42 8q45 79 88 152q-22 18 -29.5 46t1.5 55q10 28 34 45t53 17q36 0 63 -24.5t30 -60.5
t-19.5 -64.5t-58.5 -34.5q-16 -2 -30 1l-7 -12q-53 -92 -80 -138q35 -29 29 -73q-6 -48 -52 -65q-14 -6 -28 -6zM382 367q7 0 13 -5q74 -56 127 -95q13 -9 5 -24q-10 -16 -8.5 -34.5t13.5 -32.5q18 -22 45 -22q11 0 20 4q34 13 39 48q4 33 -23 55h-1q-13 9 -5 22
q27 46 82 142l8 14q7 11 19 8.5t25 -0.5q28 4 45 26t15 50q-2 27 -22.5 46t-48.5 19q-22 0 -40.5 -13.5t-26 -34.5t-1 -43t23.5 -35q13 -11 5 -25q-43 -73 -90 -154q-6 -11 -17 -11h-2q-17 2 -32 -6q-5 -3 -9 -3q-6 0 -11 4q-69 52 -129 96q-12 9 -4 22q11 19 5 39
q-5 16 -17 26t-28 11t-29.5 -7.5t-20.5 -22.5q-14 -33 12 -57q12 -11 4 -24q-16 -26 -36 -63q-6 -10 -16 -10h-4q-27 5 -43 -17q-12 -17 -6 -37q9 -27 37 -30q12 -2 24 4t18 18q13 25 -5 47q-8 11 -1 23q17 29 38 66q6 10 16 10h4q12 -2 24 4q5 2 9 2z" />
    <glyph glyph-name="nianfen" unicode="&#xe60b;" 
d="M329 305v0v-255h91v337h-76l-97 -41l15 -72zM777 127h-117v0l35 25q77 58 77 133q0 49 -32.5 78t-89.5 29q-34 0 -66 -10t-52 -26l26 -66q34 25 71 25q51 0 51 -41q0 -25 -23.5 -53t-78.5 -74l-46 -41v-56h250v77h-5zM670 626h46q18 0 29.5 12.5t11.5 28.5v188
q0 18 -12.5 29.5t-28.5 11.5h-46q-18 0 -29.5 -12.5t-11.5 -28.5v-183q0 -19 12.5 -32.5t28.5 -13.5zM303 626h46q18 0 29.5 12.5t11.5 28.5v188q3 15 -8.5 28t-27.5 13h-51q-15 0 -28 -12.5t-13 -28.5v-183q0 -19 12.5 -32.5t28.5 -13.5zM884 769h-66v-97q0 -41 -29 -69
t-68 -28h-46q-41 0 -69 29t-28 68v97h-127v-97q0 -41 -29 -69t-68 -28h-51q-39 0 -68 28t-29 69v97h-66q-30 0 -50.5 -23t-20.5 -54v-744q0 -30 23 -53t53 -23h744q31 0 53.5 23t22.5 53v744q-8 32 -30 54.5t-51 22.5zM894 -46q0 -4 -3 -7.5t-7 -3.5h-744q-4 0 -7 3.5
t-3 7.5v545h764v-545z" />
    <glyph glyph-name="yinianbaoxiu" unicode="&#xe60a;" 
d="M320 832h-64v-160h64v160zM896 768h-96v-64h96v-704h-768v704h96v64h-96q-23 0 -43.5 -16t-20.5 -38v-720q0 -25 15.5 -41.5t38.5 -16.5h784q24 0 41 17t17 41v720q0 23 -19.5 38.5t-44.5 15.5zM320 160h64v352h-64l-64 -64v-64h64v-224zM672 768h-320v-64h320v64z
M768 832h-64v-160h64v160zM640 544q-32 0 -128 -32l32 -64q48 32 96 32q33 0 47 -16t8.5 -38t-23.5 -42l-160 -163v-61h256v64h-160l96 96q82 91 60.5 157.5t-124.5 66.5z" />
    <glyph glyph-name="nianfenxuanze2x" unicode="&#xe641;" 
d="M333 458h193v-152h-193v152zM714 885h-408q-125 0 -213.5 -88.5t-88.5 -213.5v-408q0 -125 88.5 -213.5t213.5 -88.5h408q126 0 214.5 88.5t88.5 213.5v408q0 125 -88.5 213.5t-214.5 88.5zM859 256h-277v-189h-56v189h-361v50h113v201h248v124h-206q-47 -85 -106 -157
q-18 20 -43 40q99 111 149 251l57 -16q-14 -35 -30 -68h481v-50h-246v-124h234v-49h-234v-152h277v-50z" />
    <glyph glyph-name="banbenqiehuan" unicode="&#xe605;" 
d="M855 675h-52v52q0 70 -49.5 119.5t-118.5 49.5h-466q-70 0 -119.5 -49.5t-49.5 -119.5v-466q0 -69 49.5 -118.5t119.5 -49.5h52v-52q0 -70 49.5 -119.5t118.5 -49.5h466q70 0 119.5 49.5t49.5 119.5v466q0 69 -49.5 118.5t-119.5 49.5zM43 261v466q0 52 37 89t89 37h466
q52 0 88.5 -37t36.5 -89v-466q0 -52 -36.5 -88.5t-88.5 -36.5h-466q-52 0 -89 36.5t-37 88.5zM981 41q0 -52 -37 -89t-89 -37h-466q-52 0 -89 37t-37 89v52h372q69 0 118.5 49.5t49.5 118.5v371h52q52 0 89 -36.5t37 -88.5v-466v0z" />
    <glyph glyph-name="yonghuzhinan" unicode="&#xe62c;" 
d="M512 281zM978 24zM625 297q-5 0 -9 2l-104 58l-105 -58q-10 -6 -20 1.5t-8 19.5l20 123l-85 87q-9 9 -5 20t16 13l116 18l53 112q5 11 17.5 11t17.5 -11l53 -112l117 -18q11 -2 15 -13t-4 -20l-86 -87l21 -123q2 -12 -8 -19q-5 -4 -12 -4zM512 399q5 0 9 -3l79 -43
l-16 93q-1 10 6 17l65 67l-90 14q-10 2 -14 11l-39 84l-40 -84q-4 -9 -14 -11l-90 -14l66 -67q6 -7 5 -17l-15 -93l78 43q5 3 10 3zM509.5 127q-101.5 0 -187.5 50t-136 136t-50 187.5t50 187.5t136 136t187.5 50t187.5 -50t136 -136t50 -187.5t-50 -187.5t-136 -136
t-187.5 -50zM509.5 835q-90.5 0 -167.5 -45t-122 -122t-45 -167.5t45 -167.5t122 -122t167.5 -45t167.5 45t122 122t45 167.5t-45 167.5t-122 122t-167.5 45zM690 -99v0q-12 0 -17 10l-111 215q-4 7 -1.5 15t9.5 11.5t14.5 1t11.5 -9.5l94 -182l42 79q6 13 20 11l79 -14
l-96 185q-4 7 -1.5 14.5t9.5 11.5t15 1.5t11 -9.5l115 -221q5 -10 -2 -20t-19 -8l-103 19l-52 -100q-6 -10 -18 -10zM333 -99v0q-13 0 -18 11l-45 94l-112 -16q-11 -1 -18 8.5t-2 19.5l111 221q4 7 11.5 9.5t15 -1t10 -11t-1.5 -14.5l-94 -188l88 13q14 2 21 -11l34 -71
l94 186q4 8 11.5 10.5t14.5 -1.5t9.5 -11.5t-0.5 -14.5l-112 -222q-5 -11 -17 -11z" />
    <glyph glyph-name="guide" unicode="&#xe63c;" 
d="M952 737v-183h31q16 0 27.5 -11.5t11.5 -28.5q0 -16 -11.5 -27.5t-27.5 -11.5h-101q26 -41 26 -91t-26 -92h101q16 0 27.5 -11t11.5 -27q0 -17 -11.5 -28.5t-27.5 -11.5h-31v-183h31q16 0 27.5 -11.5t11.5 -28.5q0 -16 -11.5 -27t-27.5 -11h-704q-48 0 -86 26t-57 64
t-18.5 85t24.5 86h-101q-16 0 -27.5 11.5t-11.5 28.5q0 16 11.5 27t27.5 11h31v183h-31q-16 0 -27.5 11.5t-11.5 27.5q0 17 11.5 28.5t27.5 11.5h101q-24 39 -24.5 86t18.5 85t57 64t86 26h704q16 0 27.5 -11.5t11.5 -27.5t-11.5 -27.5t-27.5 -11.5h-31zM747 475v0h-628
v-183h628q34 2 58 26q25 27 25 66t-25 66q-25 25 -58 25v0v0zM905 214v0h-626q-34 0 -59 -26t-25.5 -63.5t23 -65.5t61.5 -28h626v183v0zM905 554v0v183h-626q-38 0 -61.5 -28t-23 -65.5t25.5 -63.5q24 -26 58 -26h627zM905 554z" />
    <glyph glyph-name="date" unicode="&#xe633;" 
d="M955 668v-677q0 -27 -18.5 -45t-45.5 -18h-749q-27 0 -45 18t-18 45v677q0 27 18 45t45 18h73v54q0 36 27 63.5t63 27.5h36q36 0 63 -27.5t27 -63.5v-54h208v54q0 36 27 63.5t63 27.5h36q36 0 63 -27.5t27 -63.5v-54h73q27 0 45 -18q3 -4 -1 -11t-10.5 -17t-6.5 -17z
M142 379h154v154h-154v-154zM142 172h154v171h-154v-171zM142 -18h154v153h-154v-153zM350 632v153q0 7 -1 8t-8 1l-9 9h-36q-7 0 -8 -1t-1 -8l-9 -9v-153q0 -7 1 -8t8 -1l9 -9h36q7 0 8 1t1 8q0 4 2 6t5 3h2zM332 379h171v154h-171v-154zM332 172h171v171h-171v-171z
M332 -18h171v153h-171v-153zM530 379h172v154h-172v-154zM530 172h172v171h-172v-171zM530 -18h172v153h-172v-153zM756 632v153q0 7 -1 8t-8 1l-9 9h-36q-7 0 -8 -1t-1 -8l-9 -9v-153q0 -7 1 -8t8 -1q4 0 6 -2.5t3 -4.5v-2h36q7 0 8 1t1 8q4 0 6.5 2t2.5 5v2zM738 379h153
v154h-153v-154zM738 172h153v171h-153v-171zM738 -18h153v153h-153v-153z" />
    <glyph glyph-name="paiming1" unicode="&#xe67b;" 
d="M512 896q-102 0 -188 -50t-136.5 -136.5t-50.5 -188.5t50.5 -188t136.5 -136t188 -50t188 50t136.5 136t50.5 188t-50.5 188.5t-136.5 136.5t-188 50zM512 196q-88 0 -163 43.5t-118.5 118.5t-43.5 163t43.5 163t118.5 118.5t163 43.5t163 -43.5t118.5 -118.5t43.5 -163
t-43.5 -163t-118.5 -118.5t-163 -43.5zM512 796q-114 0 -194.5 -80.5t-80.5 -194.5t80.5 -194.5t194.5 -80.5t194.5 80.5t80.5 194.5t-80.5 194.5t-194.5 80.5zM512 296q-93 0 -159 66t-66 159t66 159t159 66t159 -66t66 -159t-66 -159t-159 -66zM745 271l95 -184
q-63 24 -123 -7t-76 -96l-96 184l-33 -17l141 -273l3 -6l33 17l-3 7q-21 41 -7 85.5t55.5 65.5t85.5 7t66 -55l3 -7l33 17l-3 7l-141 273zM263 241l-79 -154q63 24 123 -7t76 -96l86 165l41 -2l-139 -268l-3 -7l-33 17l3 7q21 41 7 85.5t-55.5 65.5t-85.5 7t-66 -55l-3 -7
l-33 17l3 7l130 253z" />
    <glyph glyph-name="qiehuan3" unicode="&#xe6a5;" 
d="M963 197zM972 226h-637h-172h-147l441 -333l-51 205h567l-1 128v0v0zM66 487h809h147l-453 332l51 -204h-554v-128v0v0zM66 487z" />
    <glyph glyph-name="dianhua" unicode="&#xe640;" 
d="M960 487q-21 -29 -44.5 -39.5t-43 -5.5t-38.5 19t-30 26.5t-18 24.5q-8 13 -32 35.5t-59.5 48t-84.5 43.5t-97 18q-56 0 -107 -18t-84.5 -46t-53 -48.5t-29.5 -36.5q-7 -12 -18 -25t-30 -27.5t-38.5 -19.5t-43.5 6t-45 41q-5 6 -9 19.5t-5.5 34.5t1.5 44.5t16 49.5
t33.5 51t56.5 47.5t83.5 39.5t118 27.5t154.5 10.5q85 0 154.5 -10t116.5 -27t83.5 -39t56.5 -46.5t33 -50.5t16 -49.5t1.5 -43.5t-5.5 -34t-9 -20v0zM513 757q-98 0 -173.5 -12.5t-119 -32.5t-71.5 -45.5t-37.5 -50t-10.5 -48t3.5 -39t9.5 -21.5q12 -15 23.5 -18t24.5 7.5
t21 20t23 29.5q5 7 8 10q13 18 34.5 38.5t59.5 48.5t92.5 46t112.5 18v0q49 0 102 -18.5t93 -45t66 -48.5t37 -35l3 -3q15 -19 24 -29t24 -22.5t27 -11t21 16.5q5 7 9.5 22t3 38t-11 47.5t-37.5 49.5t-71 44t-118 31.5t-172 12.5v0zM513 607q62 0 122 -35.5t104 -92
t78.5 -123.5t52 -132t17.5 -115q0 -107 -59.5 -128.5t-314 -21.5t-314.5 21.5t-60 128.5q0 49 18 113.5t52 131.5t78.5 124t104 93t121.5 36v0zM513 9q221 0 272.5 18t51.5 108q0 34 -15 86.5t-45 110.5t-68 108.5t-90 83.5t-105.5 33t-105.5 -33t-90.5 -84t-68 -109
t-45 -110t-15.5 -86q0 -90 51.5 -108t272.5 -18v0zM513 458q52 0 88.5 -36.5t36.5 -88.5t-36.5 -88.5t-88 -36.5t-88 36.5t-36.5 88.5t36.5 88.5t87.5 36.5v0zM513 258q31 0 53 22t22 53t-22 53t-53 22t-53 -22t-22 -53t22 -53t53 -22v0zM513 258z" />
    <glyph glyph-name="write" unicode="&#xe64d;" 
d="M107 -7q-13 0 -22 9q-11 11 -8 26l33 232q4 28 26 50l520 521q37 36 84 43q51 7 84 -26l107 -107q33 -33 26 -84q-7 -47 -44 -84l-520 -520q-22 -22 -50 -26v0l-232 -33q-2 -1 -4 -1zM338 57v0v0zM756 814q-4 0 -8 -1q-26 -4 -49 -26l-520 -520q-7 -8 -9 -16l-27 -191
l191 27q8 2 16 9l520 520q22 23 26 49q3 22 -8 33l-107 107q-9 9 -25 9zM829.5 502q-12.5 0 -21.5 9l-214 214q-9 9 -9 21.5t9 21.5t21.5 9t21.5 -9l214 -214q9 -9 9 -21.5t-9 -21.5t-21.5 -9zM966 -107h-908q-13 0 -22 9t-9 21.5t9 21.5t22 9h908q13 0 22 -9t9 -21.5
t-9 -21.5t-22 -9z" />
    <glyph glyph-name="lianxiwomen1" unicode="&#xe61e;" 
d="M512 895q-104 0 -198 -40t-162 -108.5t-108.5 -162.5t-40.5 -197.5t40.5 -198t108.5 -162.5t162 -108t198 -40t198 40t162 108t108.5 162.5t40.5 198t-40.5 197.5t-108.5 162.5t-162 108.5t-198 40v0v0v0zM318 552q0 5 0.5 14.5t7.5 36.5t19.5 51t40 51t65.5 45
q8 3 21.5 6t49.5 2t64 -15l12.5 -7.5t26.5 -22t33 -38t24.5 -55t8.5 -72.5l-109 120q-5 -6 -14.5 -15t-39 -31.5t-59 -38.5t-71.5 -26.5t-80 -4.5v0v0v0zM704 523l-34 -123l12.5 -2.5t24 3.5t24.5 21l14 47q3 8 -3 22l-23 41l-15 -9v0v0v0zM320 532l33 -125
q-4 -3 -10.5 -6.5t-22 -4t-26.5 10.5q-3 6 -8 15t-13 31.5t-7 38.5q-1 0 0.5 8t15 17.5t38.5 14.5v0v0v0zM398 323q8 -4 20.5 -10t43 -15.5t53.5 -8.5q47 -2 110 31q3 -1 8 0.5t25 -6.5t43 -25q30 -19 55 -56l48 -85v-40h-584v40l93 151l21 1l3 -9t11 -21.5t21 -28.5
t33 -26.5t47 -20.5l58 -8q46 8 62 15q1 3 1.5 7t2 14.5t-2.5 13.5q-6 3 -14.5 6.5t-25 9t-21.5 4.5q-7 0 -34 -11q-5 -1 -12.5 -3t-25 0t-27.5 14q-24 29 -34 59l19 8h3v0v0v0z" />
    <glyph glyph-name="sanyuan" unicode="&#xe602;" 
d="M193 384zM47 384q0 60 43 103t103 43t102.5 -43t42.5 -103t-42.5 -103t-102.5 -43t-103 43t-43 103zM519 384zM373 384q0 60 43 103t103 43t103 -43t43 -103t-43 -103t-103 -43t-103 43t-43 103zM845 384zM700 384q0 60 42.5 103t102.5 43t103 -43t43 -103t-43 -103
t-103 -43t-102.5 43t-42.5 103z" />
    <glyph glyph-name="youxiang1" unicode="&#xe616;" 
d="M510 -30h-370q-23 0 -39.5 14t-21.5 36q-1 6 -1 15v202t-1 222q0 6 5 8q23 14 71.5 43t73.5 44q5 3 5 9v177q0 28 18 46t47 18h427q28 0 46 -18t18 -46q1 -125 0 -178q0 -5 5 -8q26 -15 74.5 -44t71.5 -43q4 -2 4 -8v-425q0 -28 -18 -46t-46 -18h-369zM495 164l-1 1l-1 1
l-1 1l-1 1h-1l-1 1l-1 1l-1 1l-1 1l-1 1h-1l-1 1l-1 1l-1 1l-1 1l-1 1h-1l-1 1l-1 1l-1 1l-1 1l-1 1h-1l-1 1l-1 1l-1 1l-1 1l-1 1h-1l-1 1l-1 1l-1 1l-1 1l-1 1h-1l-1 1l-1 1l-1 1l-1 1l-1 1h-1l-1 1l-1 1l-1 1l-1 1l-1 1h-1l-1 1l-1 1l-1 1l-1 1l-1 1h-1l-1 1l-1 1l-1 1
l-1 1l-1 1l-1 1h-1l-1 1l-1 1l-1 1l-1 1l-1 1h-1l-1 1l-1 1l-1 1l-1 1l-1 1h-1l-1 1l-1 1l-1 1l-1 1l-1 1h-1l-1 1l-1 1l-1 1l-1 1l-1 1h-1l-1 1l-1 1l-1 1l-1 1l-1 1h-1l-1 1l-1 1l-1 1l-1 1l-1 1h-1l-1 1l-1 1l-1 1l-1 1l-1 1h-1l-1 1l-1 1l-1 1l-1 1l-1 1h-1l-1 1l-1 1
l-1 1l-1 1l-1 1h-1l-1 1l-1 1l-1 1l-1 1l-1 1h-1l-1 1l-1 1l-1 1l-1 1l-1 1h-1l-1 1l-1 1l-1 1l-1 1l-1 1h-1l-1 1l-1 1l-1 1l-1 1l-1 1l-1 1h-1l-1 1l-1 1l-1 1l-1 1l-1 1h-1l-1 1l-1 1l-1 1l-1 1l-1 1h-1l-1 1l-1 1l-1 1l-1 1l-1 1h-1l-1 1l-1 1l-1 1l-1 1l-1 1h-1l-1 1
l-1 1l-1 1l-1 1l-1 1h-1l-1 1l-1 1l-1 1l-1 1l-1 1h-1l-1 1l-1 1l-1 1l-1 1l-1 1h-1l-1 1l-1 1l-1 1l-1 1l-1 1h-1l-1 1l-1 1l-1 1l-1 1l-1 1h-1l-1 1l-1 1l-1 1l-1 1l-1 1h-1l-1 1l-1 1l-1 1l-1 1l-1 1h-1l-1 1l-1 1l-1 1l-1 1l-1 1h-1l-1 1l-1 1l-1 1l-1 1l-1 1h-1l-1 1
l-1 1l-1 1l-1 1l-1 1h-1l-1 1l-1 1l-1 1l-1 1l-1 1l-1 1h-1l-1 1l-1 1l-1 1l-1 1l-1 1h-1l-1 1l-1 1l-1 1l-1 1l-1 1h-1l-1 1l-1 1l-1 1l-1 1l-1 1h-1l-1 1l-1 1l-1 1l-1 1l-1 1h-1l-1 1l-1 1l-1 1l-1 1l-1 1h-1l-1 1l-1 1l-1 1l-1 1l-1 1h-1l-1 1l-1 1l-1 1l-1 1l-1 1h-1
l-1 1l-1 1l-1 1l-1 1l-1 1h-1l-1 1l-1 1l-1 1l-1 1l-1 1l-1 1h-1l-1 1l-1 1l-1 1l-1 1l-1 1h-1l-1 1l-1 1l-1 1l-1 1l-1 1h-1l-1 1l-1 1l-1 1l-1 1l-1 1h-1l-1 1l-1 1l-1 1l-1 1l-1 1h-1l-1 1l-1 1l-1 1l-1 1l-1 1h-1l-1 1l-1 1l-1 1l-1 1l-1 1h-1l-1 1l-1 1l-1 1l-1 1l-1 1
h-1l-1 1l-1 1l-1 1l-1 1l-1 1h-1l-1 1l-1 1l-1 1l-1 1l-1 1h-1l-1 1l-1 1l-1 1l-1 1l-1 1h-1l-1 1l-1 1l-1 1l-1 1l-1 1l-1 1h-1l-1 1l-1 1l-1 1l-1 1l-1 1h-1l-1 1l-1 1l-1 1l-1 1l-1 1h-1l-1 1l-1 1l-1 1l-1 1l-1 1h-1l-2 2q-24 -14 -27 -16q-4 -2 -4 -8v-225v-191
q0 -23 14 -36.5t36 -13.5h736q23 0 37 13.5t14 36.5v239v177q0 6 -5 9q-18 10 -39 23q-5 3 -9 0q-101 -85 -346 -290q-4 -3 -35 -29zM495 183l3 2q189 158 273 229q3 2 3 6v321q0 21 -14 35t-34 14h-430q-22 0 -35.5 -14t-13.5 -35q-1 -313 -1 -345q0 -6 5 -9
q43 -36 183 -153q8 -7 61 -51zM232 540q-23 -13 -96 -57q31 -26 96 -80v137zM867 494q-2 2 -78 46v-112q14 12 40 33t38 33zM325 588v31h370v-31h-370zM325 496v30h370v-30h-370zM572 681v30h123v-30h-123z" />
    <glyph glyph-name="qiehuan4" unicode="&#xe722;" 
d="M496 383v-295q0 -50 -35 -85t-85 -35t-85 35t-35 85v614q0 11 -10 15t-17 -3l-159 -159q-11 -12 0 -23t23 0l158 159l-27 11v-614q0 -63 44.5 -107.5t107.5 -44.5t107.5 44.5t44.5 107.5v295v295q0 50 35 85t85 35t85 -35t35 -85v-614q0 -11 10 -15t17 4l159 159
q11 11 0 22t-23 0l-158 -159l27 -11v614q0 63 -44.5 107.5t-107.5 44.5t-107.5 -44.5t-44.5 -107.5v-295z" />
    <glyph glyph-name="zhinan" unicode="&#xe646;" 
d="M677 666h-332q-4 0 -7.5 -3.5t-3.5 -8.5t3.5 -8.5t7.5 -3.5h332q5 0 8.5 3.5t3.5 8.5t-3.5 8.5t-8.5 3.5zM677 595h-332q-4 0 -7.5 -3.5t-3.5 -8.5t3.5 -8.5t7.5 -3.5h332q5 0 8.5 3.5t3.5 8.5t-3.5 8.5t-8.5 3.5zM677 524h-332q-4 0 -7.5 -3.5t-3.5 -8.5t3.5 -8.5
t7.5 -3.5h332q5 0 8.5 3.5t3.5 8.5t-3.5 8.5t-8.5 3.5zM677 453h-332q-4 0 -7.5 -3.5t-3.5 -8.5t3.5 -8.5t7.5 -3.5h332q5 0 8.5 3.5t3.5 8.5t-3.5 8.5t-8.5 3.5zM677 382h-332q-4 0 -7.5 -3.5t-3.5 -8.5t3.5 -8.5t7.5 -3.5h332q5 0 8.5 3.5t3.5 8.5t-3.5 8.5t-8.5 3.5z
M677 311h-332q-4 0 -7.5 -3.5t-3.5 -8.5t3.5 -8.5t7.5 -3.5h332q5 0 8.5 3.5t3.5 8.5t-3.5 8.5t-8.5 3.5zM926 192h-95v560q0 33 -23.5 56.5t-56.5 23.5h-524h-68h-3h-6q-32 -1 -54.5 -24.5t-22.5 -55.5v-86q0 -10 7 -17t17 -7v0h94v-559q0 -34 23.5 -57t56.5 -23h3h3h593
q33 0 56.5 23t23.5 57v85q0 10 -7 17t-17 7zM120 689v63q0 15 9.5 23.5t18.5 8.5l10 1h1q13 0 22.5 -10t9.5 -23v-63h-71zM310 168v-85q0 -14 -9.5 -23.5t-23.5 -9.5h-3h-3q-13 0 -22.5 9.5t-9.5 23.5v669q0 17 -7 33h519q14 0 23.5 -10t9.5 -23v-560h-450q-10 0 -17 -7
t-7 -17zM902 83q0 -14 -9.5 -23.5t-22.5 -9.5h-520q7 15 7 33v62h545v-62z" />
    <glyph glyph-name="dianhua1" unicode="&#xe70a;" 
d="M634 -99q-7 0 -15 1q-176 26 -364 231q-102 113 -154 216.5t-41 174.5v0q4 26 21.5 52t37 43t44 33t35 21t17.5 8q9 4 18 1t14 -11l114 -192q6 -10 2 -21t-14 -16v0q-14 -7 -18 -24q-11 -51 68 -144q68 -81 129 -83q35 -2 60 22q7 7 16.5 8t17.5 -5l179 -135
q17 -13 7 -32q-3 -8 -9.5 -18.5t-24.5 -36t-36.5 -44.5t-47 -34t-56.5 -15zM215 624q-37 -20 -68.5 -48.5t-35.5 -59.5v0q-9 -53 35 -144t147 -204q175 -192 333 -215q34 -6 67.5 26t58.5 74l-145 110q-38 -25 -79 -23q-85 2 -168 101q-97 114 -78 190q6 24 23 42zM949 316
q-10 0 -17.5 6.5t-8.5 15.5q-3 25 -7 47q-3 10 3 19t16.5 11t19.5 -4t11 -16q5 -26 8 -51q1 -10 -5.5 -18.5t-16.5 -9.5h-3zM909 469q-17 0 -24 16q-5 14 -12 28q-30 66 -77 123q-106 131 -265 186q-10 3 -14.5 13t-1 20t13 14.5t19.5 0.5q173 -59 288 -202q50 -62 84 -134
q7 -15 13 -30q4 -10 0 -20t-14 -14q-5 -1 -10 -1zM793 319q-9 0 -16.5 6t-8.5 16q-20 110 -91 198t-175 130q-10 4 -14 14t0 19.5t13.5 14t19.5 0.5q116 -47 196 -145.5t101 -222.5q2 -10 -4 -18.5t-17 -10.5q-2 -1 -4 -1zM633 328q-19 0 -24 18q-16 53 -51 97
q-36 44 -86 71q-9 5 -12 15t2 19.5t15 12.5t19 -2q59 -32 101 -84q42 -51 61 -114q3 -10 -2 -19.5t-15 -12.5q-4 -1 -8 -1z" />
    <glyph glyph-name="email" unicode="&#xe62e;" 
d="M512 163l-192 158l-320 -284h1024l-320 284zM1024 100v473l-288 -221zM0 573v-473l288 252zM0 731v-95l512 -410l512 410v95h-1024z" />
    <glyph glyph-name="21xueshuicon3" unicode="&#xe642;" 
d="M998 537l-486 230l-486 -230l230 -109v-264h4l252 -163l252 163h4v264l77 36v-336h51v361zM512 710l367 -173l-367 -173l-367 173zM717 195l-205 -133l-205 132v210l205 -97l205 97v-209z" />
    <glyph glyph-name="zhongzhi01" unicode="&#xe634;" 
d="M876 373q-15 0 -26 -11t-11 -26q0 -89 -44 -164.5t-119.5 -119.5t-164 -44t-164 44t-119.5 119.5t-44 164.5q0 127 86.5 221t212.5 105l-34 -23q-12 -9 -15 -24t6 -28q11 -16 30 -16q12 0 21 7l134 92l0.5 0.5t1.5 0.5q1 2 2 2q2 3 4 5l0.5 0.5l0.5 0.5v0.5v0.5q1 1 3 4
l0.5 1l0.5 1q0 1 1 4t1 3.5v3.5q1 3 1 3.5t-1 3.5v3l-1 4q-1 2 -1 3t-0.5 2l-0.5 1q-2 2 -3 4v0v0q0 1 -0.5 1.5l-0.5 0.5q-2 3 -3 3.5t-3 2.5q-1 0 -1.5 0.5t-0.5 1.5l-134 92q-13 8 -28 5.5t-23.5 -15t-5.5 -27.5t15 -24l37 -26q-103 -6 -189.5 -61t-136.5 -145t-50 -194
q0 -109 54 -201.5t146.5 -146t201 -53.5t201 53.5t146.5 146t54 201.5q0 15 -11 26t-26 11z" />
    <glyph glyph-name="lianxiwomen2" unicode="&#xe60e;" 
d="M128 469v-256q0 -53 37.5 -90.5t90.5 -37.5h43q35 0 60 25t25 61v170q0 36 -25 61t-60 25h-86v42q0 124 87.5 211.5t211.5 87.5t211.5 -87.5t87.5 -211.5v-42h-86q-35 0 -60 -25t-25 -61v-170q0 -36 25 -61t60 -25h86v0q0 -17 -12.5 -31.5t-29.5 -16.5l-215 -31
q-17 -2 -29.5 -16.5t-12.5 -32.5v0q0 -17 12.5 -27.5t29.5 -7.5l214 35q53 0 90.5 37.5t37.5 90.5v384q0 105 -51.5 193.5t-140 139.5t-192.5 51t-192.5 -51t-140 -139.5t-51.5 -193.5z" />
    <glyph glyph-name="yonghuzhinan1" unicode="&#xe614;" 
d="M512 896q-139 0 -257 -68.5t-186.5 -186.5t-68.5 -257t68.5 -257t186.5 -186.5t257 -68.5t257 68.5t186.5 186.5t68.5 257t-68.5 257t-186.5 186.5t-257 68.5v0zM549 -53v71h-74v-71q-159 13 -273 127t-127 273h71v74h-71q13 159 127 273t273 127v-71h74v71
q159 -13 273 -127t127 -273h-71v-74h71q-13 -159 -127 -273t-273 -127v0zM228 103l393 172l171 392l-388 -175zM565 331l-192 -85l86 191zM565 331z" />
    <glyph glyph-name="daxue" unicode="&#xe65e;" 
d="M512 481q-42 0 -71 -29.5t-29 -71t29 -71t71 -29.5t71 29.5t29 71t-29 71t-71 29.5v0zM512 319q-25 0 -43.5 18t-18.5 43.5t18 43.5t44 18t44 -18t18 -43.5t-18.5 -43.5t-43.5 -18v0zM512 319zM225 179h45v-67h-45v67v0zM225 179zM225 76h45v-67h-45v67v0zM225 76z
M573 143h-122q-10 0 -16.5 -6.5t-6.5 -16.5v0v0v-0.5v-0.5v-147q0 -10 6.5 -16.5t16 -6.5t16 6.5t6.5 16.5v126h78v-126q0 -10 6.5 -16.5t16 -6.5t16 6.5t6.5 16.5v147q0 7 -4 13q-7 11 -19 11v0zM573 143zM754 179h45v-67h-45v67v0zM754 179zM754 76h45v-67h-45v67v0z
M754 76zM922 382h-218v106l-45 23v-540q0 -10 6.5 -16.5t16 -6.5t16 6.5t6.5 16.5v275h218q9 0 15.5 6.5t6.5 16.5v90q0 10 -6.5 16.5t-15.5 6.5v0zM899 291h-195v46h195v-46v0zM899 291zM128 -28q0 -10 6.5 -16.5t16 -6.5t16 6.5t6.5 16.5v276h-45v-276v0zM128 -28z
M851 -28q0 -10 6.5 -16.5t16 -6.5t16 6.5t6.5 16.5v276h-45v-276v0zM851 -28zM320 382h-218q-9 0 -15.5 -6.5t-6.5 -16.5v-91q0 -9 6.5 -15.5t15.5 -6.5h218v-275q0 -10 6.5 -16.5t16 -6.5t16 6t6.5 16v542l-45 -23v-107v0zM319 291h-194v46h194v-46v0zM319 291zM269 463
q6 0 11 2l232 120l232 -120q5 -2 10 -2q14 0 20 12q5 8 2 17t-11 14l-229 118q-1 2 -2 3v5v35l129 52q3 1 4 2v0q3 2 5 4q0 1 1 1q2 3 3 6v0v0.5v0.5q0 1 0.5 1.5t0.5 1v1v1.5v2v2v1.5v1t-1 2.5v2v0q-1 2 -2 3v1q-3 3 -6 5l-1 1l-1 1q-2 1 -3 1v0l-141 58q-15 6 -25 -6
q-8 -6 -8 -16v-165q0 -3 1 -5q-1 -2 -2 -3l-229 -118q-8 -5 -11 -14t1 -17q7 -12 20 -12v0zM534 765l61 -25l-61 -24v49v0zM534 765zM873 -52h-721q-6 0 -10.5 4t-4.5 10v2q0 6 4.5 10t10.5 4h721q6 0 10.5 -4t4.5 -10v-2q0 -6 -4.5 -10t-10.5 -4z" />
    <glyph glyph-name="qiehuan5" unicode="&#xe61c;" horiz-adv-x="1025" 
d="M991 70h-859h-33v33v99v496v33h925v-33v-496v-99v-33h-33zM132 698v-496h859v496h-859zM33 169h-33v628v33h33h892v-33h-892v-628zM859 -62h-595v33h595v-33z" />
    <glyph glyph-name="yonghuguanli" unicode="&#xe622;" 
d="M950 127v88q-59 12 -60 16q-2 8 -3 13q3 5 13 15.5t18 17.5l9 8l-67 88q-42 -36 -53 -41q-7 3 -16 6q-2 0 -7.5 14.5t-9.5 28.5l-4 14l-89 1q-10 -55 -24 -58q-8 -2 -15 -6q-5 3 -18 13t-24 19l-11 9l-67 -89q34 -34 36 -45q-2 -5 -4 -11l-55 -13v-88q47 -10 56 -18
q3 -8 7 -15q-5 -6 -15 -15t-18 -15l-7 -6l68 -89q54 35 62 37q7 -4 14 -6q3 -1 6.5 -15t5 -26t1.5 -13h89q3 50 10 52q10 3 19 7q3 -1 13.5 -10.5t19.5 -18t9 -9.5l88 90q-32 23 -41 35q3 8 6 15q2 4 16 8.5t28 8.5l14 3v0v0v0v0zM723 59q-46 0 -79 33t-33 79.5t33 79.5
t79.5 33t79.5 -33t33 -79.5t-33 -79.5t-80 -33v0v0v0zM438 400q77 0 141.5 64t64.5 143q0 80 -62.5 147t-138.5 67t-139.5 -68.5t-63.5 -148.5q0 -79 60.5 -141.5t137.5 -62.5v0v0v0zM483 356h-204q-29 0 -57.5 -9t-56 -34.5t-39.5 -62.5q-26 -80 -51 -159q-9 -29 100 -45
t260 -15q17 0 25 5.5t8 17t-3 24t-7 32.5t-4 36q0 40 12.5 78t26 60t22 40t2.5 25t-34 7v0v0v0zM483 356z" />
    <glyph glyph-name="buhuo3" unicode="&#xe617;" horiz-adv-x="1050" 
d="M1050 896v-77h-922l-26 -51v-230l26 -26h922v-77h-999l-25 26l-26 51v307l26 51l25 26h999zM154 768v-77h896v77h-896zM154 640v-77h896v77h-896zM102 358h948v-76h-896l-52 -52v-256l26 -25h922v-77h-973l-51 26l-26 51v307l26 51l25 26l51 25v0zM154 230h896v-76h-896
v76zM154 77h896v-77h-896v77z" />
    <glyph glyph-name="erren" unicode="&#xe623;" 
d="M256 896q23 0 44 -13t28 -36t2 -44t-17 -34q-12 -12 -14 -22t-1 -23q1 -9 16 -21t41 -21q27 -9 41 -20.5t23 -34.5q5 -11 13 -30q7 -18 16 -41q8 -22 15 -45t13 -42q4 -17 6 -34.5t-0.5 -32.5t-12 -26t-25.5 -17q-12 -4 -17.5 -1t-7.5 9.5t-2.5 15t-1.5 16.5
q-2 16 -10.5 33t-19.5 47q-5 14 -8 17.5t-4.5 1t-2 -8t-0.5 -9.5q0 -7 2.5 -27t6.5 -50t-0.5 -45.5t-4.5 -26.5t2 -29l4 -37q1 -9 1 -26.5v-38.5q-1 -24 -2 -41v-37q0 -15 1 -42t2 -56l2 -54q1 -25 1 -36q1 -11 -1.5 -14.5t-6.5 -4.5t-10 1q1 -2 1 -5q0 -6 1 -9
q2 -13 -7.5 -22.5t-23.5 -6.5q-11 2 -16.5 8.5t-7.5 14.5q-3 9 -2 19l-10 2q-5 2 -9 19q0 4 -1 16.5t-1 29.5q-1 16 -2 34q-1 17 -2 29t-3 34q-2 21 -4 43.5t-4 44.5t-2 34q-1 9 -3 22q-2 14 -4 26t-5 21q-1 5 -2.5 7t-2.5 2q-2 0 -5 -8.5t-6 -20.5t-5 -26t-2 -24
q0 -12 -1 -32q-2 -20 -4.5 -43t-4.5 -44t-3 -35t-2 -31t-2 -32q-1 -16 -2 -30t-1 -21q0 -8 -2.5 -11t-5.5 -5q-4 -2 -8 -1v-11q0 -5 -1 -9.5t-3 -7.5q-5 -6 -17.5 -12t-25.5 4q-5 5 -7 11.5t-2 12.5q0 7 2 15h-5q-8 0 -11.5 3.5t-4.5 9t0 12t1 12.5q1 7 2 28.5t2 46.5
q1 26 2 51t1 39v32q0 17 -0.5 35t-0.5 36v32v46q0 16 2 27q3 11 0 24.5t-3 30.5q-1 17 4 39t6 54q0 15 -2 18.5t-5 0.5t-7 -10t-5 -10q-3 -6 -7 -16.5t-8 -22t-6.5 -21.5t-2.5 -13t0.5 -11t-1 -16t-6.5 -13.5t-15 -5.5q-20 1 -35.5 17.5t-13.5 54.5q1 19 10.5 52t21.5 67
t24 62t18 40q13 21 32 26.5t33 10.5t29.5 14.5t17.5 24.5q1 12 0 21t-9 18q-14 13 -19 33t-1 40q6 33 27 46t42 13v0zM767 896q23 0 43.5 -13t28 -36t2 -44t-17.5 -34q-12 -12 -14 -22t-1 -23q1 -9 16 -21t42 -21t41 -20.5t23 -34.5q5 -11 13 -30q7 -18 16 -41q8 -22 15 -45
t12 -42q4 -17 6 -34.5t-0.5 -32.5t-11.5 -26t-25 -17q-12 -4 -17.5 -1t-7.5 9.5t-2.5 15t-1.5 16.5q-2 16 -10.5 33t-19.5 47q-5 14 -8 17.5t-4.5 1t-2 -8t-0.5 -9.5q0 -8 2.5 -27.5t6.5 -49.5t-0.5 -45.5t-4.5 -26.5t2 -29l4 -37q1 -9 1 -26q0 -18 -1 -39q0 -17 -1 -41
v-36.5t1 -42.5q1 -26 2 -56q1 -28 2 -54q1 -25 1 -36q1 -11 -1.5 -14.5t-6.5 -4.5t-10 1q1 -2 1 -5q0 -6 1 -9q2 -13 -7.5 -22.5t-23.5 -6.5q-12 2 -17.5 8.5t-7.5 14.5q-3 9 -2 19l-10 2q-5 2 -8 19q0 4 -1 16.5t-1.5 29.5t-1.5 34t-2 29t-3 34q-2 21 -4 44l-4 44t-2 34
q-1 9 -3 22q-2 14 -4 26t-5 21q-1 5 -2.5 7t-2.5 2q-2 0 -5 -8.5t-6 -20.5t-5 -26t-2 -24q0 -12 -2 -32q-1 -20 -3.5 -43t-4.5 -44t-3 -35t-2 -31t-2 -32q-1 -16 -2 -30t-1 -21q0 -8 -2.5 -11t-5.5 -5q-4 -2 -8 -1v-11q0 -5 -1 -9.5t-3 -7.5q-5 -6 -17.5 -12t-26.5 4
q-5 5 -7 11.5t-2 12.5q0 7 2 15h-5q-8 0 -11.5 3.5t-4.5 9t0 12t1 12.5q1 7 2 28.5t2 47t2 50.5t1 39v32v35q-1 18 -1 36v32v46q0 16 2 27q3 11 0 24.5t-3 30.5q-1 17 4 39t6 54q0 15 -2 18.5t-5 0.5t-6 -10q-4 -7 -6 -10q-2 -5 -6 -16t-8 -22.5t-6.5 -21.5t-2.5 -13
t0.5 -11t-1 -16t-6.5 -13.5t-15 -5.5q-20 1 -35.5 17.5t-13.5 54.5q1 19 10.5 52t21.5 67t24 62t18 40q13 21 31.5 26.5t33 10.5t30 14.5t17.5 24.5q1 12 0 21t-9 18q-14 13 -19 33t-1 40q6 33 27 46t42 13v0z" />
    <glyph glyph-name="passageoftime" unicode="&#xe6ce;" 
d="M1018 454q-13 13 -20 13h-64q-29 165 -159 274.5t-301 109.5q-95 0 -181.5 -37t-149 -100t-100 -149.5t-37.5 -180.5t37.5 -180.5t100 -149.5t149 -100t181.5 -37q125 0 232.5 63t170.5 174q9 14 5.5 31t-18.5 26q-14 10 -31 6t-27 -19q-53 -87 -143 -139.5t-189 -52.5
q-104 0 -192.5 52t-140 140.5t-51.5 192t51.5 192t140 140t192.5 51.5q133 0 237.5 -84t133.5 -210h-64q-7 0 -19 -13q-3 -3 -3 -7.5t1.5 -10.5t1.5 -7l108 -128q7 -7 19.5 -7t19.5 7l109 128v12zM473.5 742q-18.5 0 -31.5 -11.5t-13 -26.5v-256q-16 -16 -24 -31t-8 -33
q0 -30 22 -53.5t55 -23.5q19 0 32 7l147 -84q6 -6 19 -6q11 0 22.5 5t15.5 14q10 15 6 31.5t-18 26.5l-148 89q0 19 -8.5 33t-23.5 19v262q0 15 -13 26.5t-31.5 11.5zM473.5 352q-14.5 0 -23 9t-8.5 23t8.5 23t23 9t23.5 -9t9 -23t-9 -23t-23.5 -9z" />
    <glyph glyph-name="guanyuwomen2" unicode="&#xe606;" 
d="M506 827q-120 0 -220.5 -58.5t-158.5 -160t-58 -223t58 -223t158.5 -160t220.5 -58.5t221 58.5t159 160t58 223t-58 223t-159 160t-221 58.5zM506.5 -6q-104.5 0 -194 52.5t-141.5 143t-52 196t52 195.5t141.5 143t194 53t193.5 -53t141.5 -143t52.5 -195.5t-52.5 -196
t-141.5 -143t-193.5 -52.5zM564 168q-21 0 -29.5 7t-8.5 26q0 8 2.5 23.5t6.5 26.5l26 98q4 14 5.5 30t1.5 22q0 31 -21 50.5t-60 19.5q-21 0 -45 -8t-51 -19l-7 -30q7 3 19 6q11 4 21 4q22 0 29.5 -7.5t7.5 -26.5q0 -11 -3 -23q-2 -12 -6 -27l-27 -98q-3 -16 -5 -28t-2 -24
q0 -30 22 -50t61 -20q25 0 44 7q20 7 52 20l7 30l-18 -6q-13 -3 -22 -3zM546.5 650q-26.5 0 -45 -18t-18.5 -43.5t18.5 -43.5t45 -18t45.5 18t19 43.5t-19 43.5t-45.5 18z" />
    <glyph glyph-name="lingsheng" unicode="&#xe61a;" 
d="M982 59q-1 -2 -3 -5.5t-3 -5t-3 -3t-4 -2t-6 -0.5h-269q-6 -72 -62 -121.5t-132.5 -49.5t-132.5 49.5t-62 121.5h-244q-5 0 -8 1.5t-4 2.5t-3.5 5.5t-3.5 6.5q-11 17 -1 34q40 74 65 133.5t35.5 98t29.5 117.5q7 34 13 57l5 23q7 27 10.5 41.5t11.5 40.5t15 41t20 37.5
t27 37t34.5 31.5t44.5 28.5t55.5 22t67.5 16.5v41q0 15 11 26t26 11t25.5 -11t10.5 -26v-41q37 -6 68.5 -16.5t55.5 -22t44.5 -28.5t34.5 -31.5t26.5 -37t20 -38t15.5 -41t11.5 -40t9.5 -41.5l6 -23q5 -22 13 -57q19 -79 29.5 -117.5t35 -98t65.5 -133.5q9 -17 -1 -34z
M499.5 -58q47.5 0 83 29t41.5 72h-249q6 -43 41.5 -72t83 -29zM783 427q-9 41 -13 56l-6 24q-6 26 -9 39.5t-10 37t-13.5 35.5t-17 31t-22 29.5t-29 24t-37.5 21.5t-46.5 15.5t-58.5 11.5q-6 -2 -9 -2t-10 2q-31 -4 -57.5 -11.5t-47 -15.5t-37.5 -21.5t-28.5 -24
t-22.5 -29.5t-17 -31t-13 -35.5t-10.5 -37t-9.5 -39.5l-5 -24q-4 -15 -14 -56q-18 -79 -26 -109t-28.5 -86t-51.5 -116h756q-31 60 -52 116t-28.5 86t-26.5 109z" />
    <glyph glyph-name="yuanjiaojuxingfanyejiantour-copy" unicode="&#xe619;" 
d="M389 118l24 -24l290 290l-290 290l-24 -24l266 -266zM887 862q44 0 73.5 -29.5t29.5 -73.5v-750q0 -44 -29.5 -73.5t-73.5 -29.5h-750q-44 0 -73.5 29.5t-29.5 73.5v750q0 44 29.5 73.5t73.5 29.5h750zM887 896h-750q-57 0 -97 -40t-40 -97v-750q0 -57 40 -97t97 -40h750
q57 0 97 40t40 97v750q0 57 -39 97t-98 40v0z" />
    <glyph glyph-name="303" unicode="&#xe636;" 
d="M323 89v428q0 12 -8.5 21t-20.5 9h-89q-12 0 -21 -9t-9 -21v-428h148zM512 89v611q0 13 -9 22.5t-21 9.5h-89q-12 0 -20.5 -9.5t-8.5 -22.5v-611h148zM701 89v270q0 13 -9 22.5t-21 9.5h-89q-12 0 -21 -9.5t-9 -22.5v-270h149zM889 89v428q0 12 -8.5 21t-20.5 9h-89
q-12 0 -21 -9t-9 -21v-428h148zM916 49h-781v696q0 11 -8 18.5t-19 7.5t-19 -7.5t-8 -18.5v-748h835q11 0 19 7.5t8 18.5t-8 18.5t-19 7.5v0v0z" />
    <glyph glyph-name="yonghuguanli1" unicode="&#xe69b;" horiz-adv-x="1025" 
d="M1024 84v104q-68 13 -70 18q-2 9 -4 15q4 6 15.5 18t21.5 21l10 8l-78 103q-50 -41 -62 -47q-9 4 -19 6q-3 1 -9 18t-11 33l-5 17l-104 1q-11 -64 -28 -68q-8 -3 -17 -7q-6 3 -21.5 15t-28.5 23l-13 10l-77 -105q39 -39 41 -52l-4 -12l-64 -15v-104q55 -12 65 -21
q4 -9 8 -17q-13 -16 -47 -43v0l80 -104q63 41 73 43l16 -6q4 -1 8 -17t6 -31l2 -16h104q3 59 11 62q11 3 22 8q4 -1 16.5 -12.5t23 -21.5l10.5 -10l103 104q-39 27 -49 41q5 10 8 18q1 4 18 10t33 9l16 4v0zM759 5q-54 0 -92.5 38.5t-38.5 93t38.5 92.5t93 38t92.5 -38
t38 -92.5t-38 -93t-93 -38.5v0zM425 404q59 0 115 34t91 90.5t35 117.5q0 60 -33.5 118.5t-88.5 95t-113 36.5t-113.5 -37t-90 -96.5t-34.5 -120.5q0 -92 71.5 -165t160.5 -73v0zM478 352h-239q-33 0 -66 -11t-66 -40.5t-47 -72.5q-29 -93 -59 -186q-11 -33 116.5 -52
t304.5 -18q20 0 29.5 6.5t9.5 20t-3.5 28t-8 37.5t-4.5 42q0 47 14 91.5t30 70t26 46.5t2.5 29.5t-39.5 8.5v0zM478 352z" />
    <glyph glyph-name="zhongyaobiaoji" unicode="&#xe63a;" 
d="M849 452h-212l150 151q11 10 11 25t-11 25l-17 17q-10 10 -25 10t-25 -10l-150 -150v212q0 15 -10.5 25.5t-25.5 10.5h-24q-15 0 -25.5 -10.5t-10.5 -25.5v-212l-150 150q-11 11 -25.5 11t-25.5 -11l-16 -17q-11 -10 -11 -25t11 -25l150 -151h-213q-14 0 -24.5 -10
t-10.5 -25v-24q0 -15 10.5 -25.5t24.5 -10.5h213l-150 -150q-11 -11 -11 -25.5t11 -25.5l16 -16q11 -11 25.5 -11t25.5 11l150 150v-213q0 -14 10.5 -24.5t25.5 -10.5h24q14 0 24.5 10.5t10.5 24.5v213l151 -151q10 -10 25 -10t25 10l17 17q10 11 10 25.5t-10 25.5l-150 150
h212q15 0 25.5 10.5t10.5 25.5v24q0 15 -10.5 25t-25.5 10z" />
    <glyph glyph-name="zhibiaoyuce" unicode="&#xe643;" 
d="M416 384q-13 0 -22.5 -9t-9.5 -23v-448q0 -13 9.5 -22.5t22.5 -9.5t22.5 9.5t9.5 22.5v448q0 14 -9.5 23t-22.5 9zM160 192q-13 0 -22.5 -9t-9.5 -23v-256q0 -13 9.5 -22.5t22.5 -9.5t22.5 9.5t9.5 22.5v256q0 14 -9.5 23t-22.5 9zM672 256q-13 0 -22.5 -9t-9.5 -23v-320
q0 -13 9.5 -22.5t22.5 -9.5t22.5 9.5t9.5 22.5v320q0 14 -9.5 23t-22.5 9zM928 384q-13 0 -22.5 -9t-9.5 -23v-448q0 -13 9.5 -22.5t22.5 -9.5t22.5 9.5t9.5 22.5v448q0 14 -9.5 23t-22.5 9zM1002 830q-9 5 -20 2h-182q-13 0 -22.5 -9t-9.5 -22.5t9.5 -23t22.5 -9.5h110
l-305 -305l-232 232l-0.5 0.5l-0.5 0.5l-0.5 0.5l-0.5 0.5v0q-15 15 -34 7q-7 -3 -12 -8l-315 -317q-10 -10 -10 -24t10 -23.5t23.5 -9.5t23.5 10l295 297l235 -235q9 -9 22 -9t22 9v0v0q1 0 1.5 0.5l0.5 0.5l327 329v-116q0 -13 9.5 -22.5t22.5 -9.5t22.5 9.5t9.5 22.5v192
q0 23 -22 30z" />
    <glyph glyph-name="yonghuguanli-copy" unicode="&#xe626;" 
d="M494 -62q-20 -1 -30 -1q-387 0 -387 140q0 89 52 163.5t141 117t194 42.5q53 0 104 -11q29 20 62 34q-15 5 -31 10q52 32 81.5 85.5t29.5 117.5q0 101 -72 173.5t-173.5 72.5t-174 -72.5t-72.5 -173.5q0 -64 29.5 -117.5t81.5 -85.5q-130 -38 -213 -135t-83 -216
q0 -39 15 -69t44.5 -50t66 -33t88 -20t102 -10t115.5 -3q38 0 64 1q-19 19 -34 40zM262 635.5q0 85.5 58 143.5t144 58t144 -58t58 -143.5t-58 -143.5t-144 -58t-144 58t-58 143.5zM969 186l-54 9q-7 2 -9 8q-1 1 -4 8q-1 4 -2 6t-1 2.5v0.5q-3 6 1 11l31 45q5 7 4.5 16.5
t-6.5 16.5l-33 34q-7 5 -16.5 5.5t-16.5 -4.5l-45 -31q-5 -5 -12 -1l-16 6q-7 3 -8 10l-9 54q-1 8 -8.5 14.5t-16.5 7.5h-47q-9 -1 -16 -7.5t-9 -14.5l-9 -54q-1 -7 -7 -9q-2 0 -9 -3l-8 -4q-6 -3 -12 1l-44 31q-17 12 -34 -2l-33 -33q-14 -16 -2 -33l32 -45q4 -5 1 -12
l-7 -16q-2 -7 -9 -8l-54 -9q-8 -2 -14.5 -9t-7.5 -16v-47q1 -9 7 -16t15 -8l54 -10q6 -1 9 -7q0 -1 3 -9l4 -8q3 -6 -1 -12l-32 -44q-5 -7 -4.5 -17t6.5 -17l34 -33q16 -14 33 -2l44 32q6 4 13 1l16 -7q6 -2 7 -9l9 -54q2 -9 9 -15t16 -7h48q9 1 16 7.5t8 14.5l9 54q2 7 8 9
q1 0 8 3q8 4 9 4q6 3 11 -1l45 -31q17 -12 33 2l34 33q13 16 1 33l-31 44q-4 6 -1 13l6 16q3 7 9 8l54 9q9 1 15.5 8t7.5 17v47q-1 9 -7.5 16t-14.5 8zM952 126l-44 -8q-28 -5 -38 -31l-6 -15q-12 -26 4 -49v0l26 -37l-17 -18l-37 27q-12 8 -28 8q-13 0 -23 -5l-5 -2
q-6 -3 -7 -3q-12 -5 -21 -15.5t-11 -22.5l-8 -44h-24l-8 44q-2 12 -11 22.5t-20 15.5l-15 6q-10 4 -21 4q-16 0 -29 -9l-36 -26l-18 18l27 37q17 24 3 50v1q-1 3 -2 5l-3 6v0q-4 13 -14.5 22t-23.5 11l-45 8v24l45 8q28 5 38 31l6 15q12 26 -5 50l-26 36l18 18l37 -27
q12 -8 28 -8q12 0 22 5l2 1t4 1v1q3 1 5 2h2h-1v0q13 4 22 15t11 23l8 45h24l8 -45q2 -12 10.5 -22.5t20.5 -15.5l15 -6q9 -4 21 -4q16 0 29 9l36 26l18 -18l-26 -36q-17 -23 -5 -49q0 -1 1 -1v-1q1 -3 3 -6l2 -6q4 -12 14.5 -21.5t23.5 -11.5l45 -8v-24h-1zM725 44
q-39 0 -66.5 27.5t-27.5 66.5t27.5 66.5t66.5 27.5t66.5 -27.5t27.5 -66.5t-27.5 -66.5t-66.5 -27.5v0zM725 199q-25 0 -43 -18t-18 -43t18 -43t43 -18t43 18t18 43t-18 43t-43 18v0zM725 212z" />
    <glyph glyph-name="daohanglandingdananniu" unicode="&#xe607;" 
d="M862.5 458q-13.5 0 -22.5 -9.5t-9 -23.5v-408q0 -33 -22.5 -57t-55.5 -24h-594q-34 0 -64.5 24.5t-30.5 56.5v596q0 33 31 62t64 29h340q14 0 23.5 9t9.5 23t-9.5 23t-23.5 9h-340q-66 0 -112.5 -44.5t-46.5 -110.5v-596q0 -64 46 -104.5t113 -40.5h594q65 0 103.5 39.5
t38.5 105.5v408q0 14 -9.5 23.5t-23 9.5zM994 819l-49 49q-28 28 -69.5 28t-69.5 -28l-92 -108l-490 -470v-12v-2l-62 -209l45 -40l198 70l3 -1h9l469 492l108 88q29 29 29 71.5t-29 71.5zM249 113l29 92l57 -58zM394 182l-85 85l438 436l82 -82zM947 726l-65 -65l-95 95
l65 66q10 9 23.5 9t23.5 -9l48 -49q10 -10 10 -23.5t-10 -23.5z" />
    <glyph glyph-name="lianxiwomen3" unicode="&#xe60c;" 
d="M512 895q-104 0 -198 -40t-162 -108.5t-108.5 -162.5t-40.5 -197.5t40.5 -198t108.5 -162.5t162 -108t198 -40t198 40t162 108t108.5 162.5t40.5 198t-40.5 197.5t-108.5 162.5t-162 108.5t-198 40v0v0v0zM318 552q0 5 0.5 14.5t7.5 36.5t19.5 51t40 51t65.5 45
q8 3 21.5 6t49.5 2t64 -15l12.5 -7.5t26.5 -22t33 -38t24.5 -55t8.5 -72.5l-109 120q-5 -6 -14.5 -15t-39 -31.5t-59 -38.5t-71.5 -26.5t-80 -4.5v0v0v0zM704 523l-34 -123l12.5 -2.5t24 3.5t24.5 21l14 47q3 8 -3 22l-23 41zM320 532l33 -125q-4 -3 -10.5 -6.5t-22 -4
t-26.5 10.5q-3 6 -8 15t-13 31.5t-7 38.5q-1 0 0.5 8t15 17.5t38.5 14.5v0v0v0zM398 323q8 -4 20.5 -10t43 -15.5t53.5 -8.5q47 -2 110 31q3 -1 8 0.5t25 -6.5t43 -25q30 -19 55 -56l48 -85v-40h-584v40l93 151l21 1l3 -9t11 -21.5t21 -28.5t33 -26.5t47 -20.5l58 -8
q46 8 62 15q1 3 1.5 7t2 14.5t-2.5 13.5q-6 3 -14.5 6.5t-25 9t-21.5 4.5q-7 0 -34 -11q-5 -1 -12.5 -3t-25 0t-27.5 14q-24 29 -34 59l19 8h3z" />
    <glyph glyph-name="banben" unicode="&#xe69d;" 
d="M853 896h-682q-71 0 -121 -50t-50 -121v-682q0 -71 50 -121t121 -50h682q71 0 121 50t50 121v682q0 71 -50 121t-121 50zM741.5 656q25.5 0 44 -18t18.5 -44t-18.5 -44t-44 -18t-44 18t-18.5 44t18.5 44t44 18zM819 272q0 -72 -51.5 -124t-124.5 -52h-262q-73 0 -125 52
q-51 52 -51 124v223q0 73 51.5 125t124.5 52h216v-41h-216q-58 0 -97 -38.5t-39 -97.5v-223q0 -58 39 -97t97 -39h262q58 0 97 39t39 97v177h40v-177z" />
    <glyph glyph-name="yhgl" unicode="&#xe6a6;" 
d="M549 -45l-1 232h24q22 0 37.5 15.5t15.5 37.5v218q0 22 -15.5 37.5t-37.5 15.5h-174q-22 0 -37.5 -15.5t-15.5 -37.5v-218q0 -22 15.5 -37.5t37.5 -15.5h23v-232h-23v208l-8 1q-28 3 -48 25t-20 51v0v218q0 31 22 53.5t54 22.5h174q31 0 53 -22.5t23 -53.5v-218v0
q0 -29 -20 -51t-48 -25h-9v-209h-22v0zM485 601q-44 0 -75 31t-31 75t31 75t75 31t75 -31t31 -75t-31 -75t-75 -31zM484.5 790q-34.5 0 -58.5 -24t-24 -58.5t24 -59t58.5 -24.5t59 24.5t24.5 59t-24.5 58.5t-59 24z" />
    <glyph glyph-name="ss-caidan2" unicode="&#xe678;" 
d="M161 137v0q0 17 11.5 28.5t28.5 11.5l688 1q17 0 28.5 -12t11.5 -28.5t-11.5 -28t-28.5 -12.5h-688v0q-17 0 -28.5 11.5t-11.5 28.5zM353 384v0q0 16 12 28t28 12h496v0q17 0 29 -11.5t12 -28t-12 -28.5t-29 -12h-495h-1q-16 0 -28 11.5t-12 28.5zM64 656v0
q0 17 11.5 28.5t28.5 11.5l816 1v0q17 0 28.5 -11.5t11.5 -28.5t-11.5 -28.5t-28.5 -11.5l-816 -1v0q-17 0 -28.5 12t-11.5 28z" />
    <glyph glyph-name="shujuyuan1" unicode="&#xe80a;" 
d="M51 735.5q0 43.5 61.5 80.5t167.5 58.5t232 21.5t232 -21.5t167.5 -58.5t61.5 -80.5t-61.5 -80.5t-167.5 -58.5t-232 -21.5t-232 21.5t-167.5 58.5t-61.5 80.5zM819 674q57 21 82 41q6 5 9.5 9t3.5 6l1 2q-4 10 -14 17q-17 18 -82 41q-127 45 -307 45q-174 0 -307 -45
q-65 -16 -82 -37q-17 -12 -17 -17q0 -8 17 -21q35 -28 82 -41q127 -44 307 -44t307 44zM51 701v-638q26 -85 154 -138t314 -53q191 0 321 65q59 34 65 37q4 3 13 11.5t17 12.5q10 8 11 19.5t-7 21.5t-19.5 11t-21.5 -7q-5 -4 -9.5 -9t-8.5 -7.5t-10 -4.5q-7 -8 -27.5 -19
t-26.5 -15q-116 -58 -297 -58q-165 0 -279.5 44.5t-133.5 105.5v649q0 12 -8.5 19.5t-18.5 7.5q-11 0 -19.5 -7t-8.5 -17v-31zM915 152q0 -12 8 -19.5t19 -7.5q10 0 18.5 8.5t8.5 18.5l4 563q0 12 -8.5 19.5t-19.5 7.5q-10 0 -18.5 -8.5t-8.5 -18.5zM393 125q166 -19 314 9
t245 103q8 5 8.5 12t-4.5 12q-5 8 -12 8.5t-12 -4.5q-93 -71 -234.5 -98t-298.5 -8q-84 10 -156 31.5t-111.5 46t-35.5 45.5q0 13 -14 20q-15 0 -21 -17q-7 -50 89.5 -96t242.5 -64zM393 346q166 -18 314 10t245 103q8 5 8.5 12t-4.5 12q-5 7 -12 8t-12 -5
q-93 -70 -234.5 -97t-298.5 -8q-84 10 -156 31.5t-111.5 47t-35.5 47.5q0 14 -14 20q-15 0 -21 -17q-7 -55 89 -101.5t243 -62.5zM806 510q0 -12 8 -19.5t19 -7.5q10 0 18.5 8.5t8.5 18.5q0 13 -8 20.5t-19 7.5q-10 0 -18.5 -8.5t-8.5 -19.5zM806 288q0 -12 8 -19.5t19 -7.5
q10 0 18.5 8.5t8.5 18.5q0 13 -8 20.5t-19 7.5q-12 2 -19.5 -6t-7.5 -22zM806 73q0 -12 8 -19.5t19 -7.5q10 0 18.5 8.5t8.5 18.5q0 13 -8 20.5t-19 7.5q-10 0 -18.5 -8.5t-8.5 -19.5z" />
    <glyph glyph-name="tubiaozhizuomoban" unicode="&#xe63b;" 
d="M511.5 -64q-121.5 0 -225 19t-163.5 51.5t-60 70.5q0 46 85 83t220 51l5 -52q-83 -12 -136 -34t-53 -48q0 -37 101.5 -64.5t225.5 -27.5t226 27.5t102 64.5q0 26 -54.5 48.5t-138.5 34.5l5 51q136 -14 222 -50.5t86 -83.5q0 -38 -60 -70.5t-163 -51.5t-224.5 -19zM470 58
v204h82v-204h-82zM308 465h407l122 -81l-122 -82h-407v163zM104 628l163 82h570v-163h-570zM470 832h79l3 -82h-82v82z" />
    <glyph glyph-name="nianlisvg" unicode="&#xe60d;" 
d="M1008 -128h-992v800q0 6 1 15t9 30.5t22 35.5q29 30 79 30h770q50 -1 81 -32q30 -29 30 -79v-800zM36 -108h952v608h-952v-608zM127 763q-41 0 -64 -24q-27 -26 -27 -67v-152h952v152q0 42 -24 65q-12 12 -29 18t-26.5 7t-11.5 1h-770zM243 673h-20v223h20v-223zM801 673
h-20v223h20v-223zM409 310q-10 -18 -28.5 -39.5t-34.5 -33.5l-15 18q62 48 84 127l22 -4q-7 -24 -17 -47h256v-21h-130v-73h116v-20h-116v-95h143v-21h-143v-93h-21v93h-190v21h68v115h122v73h-116zM425 122h100v95h-100v-95z" />
    <glyph glyph-name="qiehuan6" unicode="&#xe909;" 
d="M980.5 213q-17.5 0 -30.5 13t-13 31l1 255q0 36 -24.5 60.5t-60.5 24.5h-639l149 -136l-61 -61l-259 240l226 243l60 -60l-129 -141h653q72 0 121.5 -46.5t49.5 -117.5v-261q0 -18 -13 -31t-30.5 -13zM86 469v-256q0 -35 25 -60t60 -25h664l-140 141l60 60l214 -213
l-214 -231l-60 60l99 98h-623q-71 0 -121 50t-50 120v256q0 18 12.5 30.5t30.5 12.5t30.5 -12.5t12.5 -30.5z" />
    <glyph glyph-name="daxuepaimingn" unicode="&#xe627;" 
d="M513 -60q-91 0 -174 35q-81 34 -142.5 96t-95.5 142q-36 83 -36 174t36 174q34 81 95.5 143t142.5 95q83 36 174 36t174 -36q80 -33 142 -95t96 -143q35 -83 35 -174t-35 -174q-34 -80 -96 -142t-142 -96q-83 -35 -174 -35zM512.5 823q-88.5 0 -169 -34.5t-139 -93
t-93 -139t-34.5 -169t34.5 -169t93 -139t139 -93t169 -34.5t169 34.5t139 93t93 139t34.5 169t-34.5 169t-93 139t-139 93t-169 34.5zM678 159h-332q-25 0 -42 17t-17 42v332q0 24 17 41.5t42 17.5h332q25 0 42 -17.5t17 -41.5v-332q0 -25 -17 -42t-42 -17zM346 600
q-21 0 -35.5 -14.5t-14.5 -35.5v-332q0 -21 14.5 -35.5t35.5 -14.5h332q21 0 35.5 14.5t14.5 35.5v332q0 21 -14.5 35.5t-35.5 14.5h-332v0zM637 456h24v-294h-24v294zM358 520h25v-358h-25v358zM428 410h25v-248h-25v248zM497 418h25v-256h-25v256zM567 384h25v-222h-25
v222z" />
    <glyph glyph-name="yonghuzhinan2" unicode="&#xe615;" 
d="M560 340l-93 92q-10 10 -39 -43t-52.5 -109.5t-23.5 -58.5q14 6 37.5 16.5t72.5 33t77.5 42t20.5 27.5zM511.5 832q-90.5 0 -173.5 -35.5t-143 -95.5t-95.5 -143t-35.5 -173.5t35.5 -173.5t95.5 -143t143 -95.5t173.5 -35.5t173.5 35.5t143 95.5t95.5 143t35.5 173.5
t-35.5 173.5t-95.5 143t-143 95.5t-173.5 35.5zM606 290.5q-25 -26.5 -114.5 -67.5t-158.5 -67t-77 -28q12 33 31 83t62.5 145.5t68.5 122t113 67t161 67.5t76 27q-12 -32 -31 -82t-62.5 -145.5t-68.5 -122z" />
    <glyph glyph-name="lianxiwomen4" unicode="&#xe647;" 
d="M683 452q2 -11 14 -11h2q6 1 9.5 6t2.5 10q-11 61 -63 96q-39 26 -87 26q-14 0 -29 -3q-6 -1 -9 -5.5t-2 -10.5q2 -12 14 -12h2q12 2 24 2q39 0 71 -21q42 -28 51 -77zM777 273q-18 17 -45 36q-26 19 -50 31q-27 15 -41 15q-19 0 -32 -19q-6 -8 -14 -27q-6 -14 -8 -18
q-14 4 -40 22q-33 23 -60 49q-27 28 -50 61q-18 26 -22 40q5 2 18 8v0q19 8 27 14q19 13 19 32q0 14 -15 42q-12 23 -30 49q-19 28 -36 46q-24 24 -41 24q-30 0 -69 -53q-39 -52 -39 -95q0 -44 43 -115q41 -67 104 -131l13 -13v0q64 -62 130 -104q71 -43 115 -43q42 0 94 39
q53 39 53 70q0 17 -24 40zM754 218q-12 -13 -29 -26q-42 -31 -71 -31q-33 0 -95 38q-63 39 -124 99l-13 12q-59 61 -98 125q-38 62 -38 95q0 30 30 71q14 18 27 30q8 7 14 9q17 -10 48 -56q16 -23 27 -43q8 -15 10 -23q-2 -2 -5 -4q-5 -3 -19 -8q-16 -8 -23 -12
q-18 -12 -18 -29q1 -21 29 -63q25 -36 54 -66v0q30 -29 66 -54q42 -29 63 -29v0q17 0 29 17q4 7 11 24q6 13 9 18q2 4 4 5q7 -2 23 -10q20 -10 43 -26q45 -32 55 -49q-2 -6 -9 -14zM601 484q-23 16 -52 16q-8 0 -17 -2q-6 -1 -9 -5.5t-2 -10.5q2 -12 14 -12h2q6 1 12 1
q20 0 37 -11q21 -14 25 -38q3 -12 15 -12h2q6 1 9.5 6t2.5 11q-7 36 -39 57zM806 466q-17 96 -100 151q-62 41 -137 41q-23 0 -45 -4q-6 -1 -9.5 -6t-2.5 -11q2 -11 14 -11h3q20 3 40 3q67 0 122 -36q72 -48 87 -132q2 -12 14 -12q1 0 3 1q5 1 8.5 5.5t2.5 10.5z" />
    <glyph glyph-name="qiehuan7" unicode="&#xe67c;" 
d="M621 640q-10 10 -22.5 10t-22.5 -10t-10 -22.5t10 -22.5l83 -83h-371q-14 0 -23 -9t-9 -23t9 -23t23 -9h448q32 0 32 32q0 9 -1.5 15t-3.5 8l-1 3zM736 320h-448q-32 0 -32 -32q0 -9 1.5 -15t3.5 -8l1 -3l141 -134q10 -10 22.5 -10t22.5 10t10 22.5t-10 22.5l-83 83h371
q14 0 23 9t9 23t-9 23t-23 9zM512 832q-187 0 -317.5 -130.5t-130.5 -317.5t130.5 -317.5t317.5 -130.5t317.5 130.5t130.5 317.5t-130.5 317.5t-317.5 130.5zM512 0q-158 0 -271 113t-113 271t113 271t271 113t271 -113t113 -271t-113 -271t-271 -113z" />
    <glyph glyph-name="xuexifenxi" unicode="&#xe631;" 
d="M885 495q-17 0 -26 3l-68 -216q32 -20 51.5 -53.5t19.5 -72.5q0 -57 -39.5 -98t-97.5 -41h-3q-57 0 -99.5 41t-42.5 98q0 56 37 97l-151 168q-40 -46 -102 -46q-34 0 -57 12l-74 -151q49 -44 49 -111q0 -58 -40 -98.5t-97 -40.5h-3q-58 0 -100 41t-42 98q0 58 42.5 101.5
t99.5 43.5q36 0 66 -17l71 148q-28 19 -44 49.5t-16 64.5q0 59 42 102t100 43t99 -42.5t41 -102.5q0 -43 -20 -71l153 -171q43 29 83 29q14 0 42 -6l69 210q-40 18 -65.5 54t-25.5 80q0 59 42 99t100 40q57 0 98 -42.5t41 -102.5q5 -55 -35.5 -97t-97.5 -42zM142 245
q-47 0 -80.5 -33.5t-33.5 -80.5t33.5 -79t80.5 -32t79 32t32 79t-32 80.5t-79 33.5zM364 631q-47 0 -80.5 -33t-33.5 -80t33.5 -79t80.5 -32t79 32t32 79t-32 80t-79 33zM771 259l-17 6v2q-23 6 -34 6q-47 0 -80.5 -33.5t-33.5 -80.5q0 -46 33 -78.5t81 -32.5q47 0 79 32
t32 79q0 30 -16.5 57.5t-43.5 42.5zM885 751q-48 0 -81 -32t-33 -79t33.5 -80.5t80.5 -33.5t79 32t32 79t-32.5 80.5t-78.5 33.5zM899 683q-22 0 -37 -20q-12 -12 -20 -3q-11 11 -3 20q24 34 63 34q14 0 14 -14q0 -7 -5.5 -12t-11.5 -5z" />
    <glyph glyph-name="caidan" unicode="&#xe6c2;" 
d="M136 147h757v48h-757v-48zM278 360h615v48h-615v-48zM136 621v-48h757v48h-757z" />
    <glyph glyph-name="r-" unicode="&#xe604;" 
d="M589 541q-24 19 -72 19h-127v-154h128q47 0 72 21q23 18 23 58q-3 37 -24 56zM512 896q-212 0 -362 -150t-150 -362t150 -362t362 -150t362 150t150 362t-150 362t-362 150zM630 149q-15 20 -20 62l-7 59q-5 40 -25 56q-23 18 -63 18h-128v-195h-72v470h208q72 0 114 -32
q43 -36 43 -102q0 -37 -19 -66q-22 -32 -61 -41v-2q63 -15 70 -83l8 -75q6 -47 28 -69h-76z" />
    <glyph glyph-name="nianfen1" unicode="&#xe60f;" 
d="M956 806h-153v84h-76v-84h-432v84h-76v-84h-151q-28 0 -48 -20t-20 -48v-794q0 -28 20 -48t48 -20h888q28 0 48 20t20 48v794q0 28 -20 48t-48 20zM967 -54q0 -11 -11 -11h-888q-11 0 -11 11v538h908v58h-906v196q0 11 11 11h151v-74h76v74h432v-74h76v74h153
q11 0 11 -11v-792h-2zM258 329zM203 329q0 -23 16 -39.5t39 -16.5t39 16.5t16 39.5t-16 39t-39 16t-39 -16t-16 -39zM512 329zM457 329q0 -23 16 -39.5t39 -16.5t39 16.5t16 39.5t-16 39t-39 16t-39 -16t-16 -39zM768 329zM711 329q0 -23 16 -39.5t39 -16.5t39 16.5t16 39.5
t-16 39t-39 16q-22 0 -38.5 -16.5t-16.5 -38.5zM258 116zM203 116q0 -23 16 -39.5t39 -16.5t39 16.5t16 39.5t-16 39t-39 16t-39 -16t-16 -39zM512 116zM457 116q0 -23 16 -39.5t39 -16.5t39 16.5t16 39.5t-16 39t-39 16t-39 -16t-16 -39zM768 116zM711 116q0 -23 16 -39.5
t39 -16.5t39 16.5t16 39.5t-16 39t-39 16q-22 0 -38.5 -16.5t-16.5 -38.5v0z" />
    <glyph glyph-name="guanyuwomen3" unicode="&#xe644;" 
d="M780 187.5q-12 -5.5 -16.5 -17.5t1.5 -23q25 -55 25 -116q0 -13 9 -22t22 -9t22 9t9 22q0 74 -31 141q-5 12 -17 16.5t-24 -1zM677 328q-21 12 -44 20q20 14 38 31q67 67 67 161.5t-67 161t-162.5 66.5t-162.5 -66.5t-67 -161t67 -161.5q18 -17 39 -31q-5 -2 -9 -4
q-62 -25 -109.5 -72.5t-73.5 -108.5q-27 -63 -27 -132q0 -13 9 -22t22 -9t22 9t9 22q0 115 82.5 196.5t198.5 81.5q74 0 138 -35q11 -6 23.5 -3t18.5 14.5t2.5 23.5t-14.5 19zM508.5 374q-69.5 0 -118.5 49t-49 117.5t49 117t118.5 48.5t118.5 -48.5t49 -117t-49 -117.5
t-118.5 -49zM307 355q0 13 -9.5 22t-22.5 9v0v2q-51 0 -87.5 36.5t-36.5 87.5t36.5 87t87.5 36v62q-77 0 -132 -54.5t-55 -130.5q0 -45 20.5 -84t55.5 -65q-47 -21 -83 -57q-81 -80 -81 -193q0 -13 9 -22t22 -9t22 9t9 22q0 87 62.5 149t150.5 62q13 0 22.5 9t9.5 22z
M943 306q-36 36 -83 57q35 26 55.5 65t20.5 84q0 76 -55 130.5t-132 54.5v-62q51 0 87.5 -36t36.5 -87t-36.5 -87.5t-87.5 -36.5v-2v0q-13 0 -22.5 -9t-9.5 -22t9.5 -22t22.5 -9q88 0 150.5 -62t62.5 -149q0 -13 9 -22t22 -9t22 9t9 22q0 113 -81 193z" />
    <glyph glyph-name="version" unicode="&#xe677;" 
d="M713 643h120q10 0 15.5 11.5t-1.5 19.5l-120 116q-8 8 -19.5 3.5t-11.5 -16.5v-117q0 -17 17 -17zM727 579q-49 0 -69.5 21t-22.5 74v120h-389q-38 0 -55 -18t-17 -54v-676q0 -40 17.5 -56t54.5 -16h532q39 0 55.5 17t16.5 55v533h-123zM287 691h228q17 0 17 -17t-17 -17
h-228q-17 0 -17 17t17 17zM270 572q0 17 17 17h228q17 0 17 -17t-17 -17h-228q-17 0 -17 17zM700 398l-127 -277q-5 -10 -17 -10h-92q-12 0 -17 10l-126 277q-5 7 1 15.5t16 8.5h44q12 0 17 -11q4 -8 34.5 -71.5t51 -109t20.5 -51.5h7q1 2 18 34.5t43.5 88t47.5 109.5
q5 11 17 11h45q10 2 14.5 -6t2.5 -18z" />
    <glyph glyph-name="liujiaoxing" unicode="&#xe610;" 
d="M977 659h-320l-137 237l-136 -237h-337l172 -285l-153 -265h314l143 -237l136 237h316l-158 273z" />
    <glyph glyph-name="zhibiao" unicode="&#xe62b;" 
d="M546 883q97 0 182.5 -37t149 -100.5t100.5 -149t37 -182.5t-37 -182.5t-100.5 -149t-149 -100t-182.5 -36.5q-86 0 -162.5 29t-138.5 80l114 243q21 -34 39 -63q15 -25 30 -47.5t21 -30.5q11 -14 20.5 -26t26.5 -14q21 -3 30 7.5t20 27.5q3 4 11.5 21t20.5 42t27 55.5
t30 62.5q35 74 78 165l106 -57l-43 309l-272 -167l119 -41l-126 -259q-29 47 -50 82q-9 15 -17.5 28.5t-14.5 23.5l-9 15q4 -8 0.5 -2.5t-11.5 15.5t-18 20t-19 10q-23 0 -33 -11.5t-16 -26.5q-2 -4 -10 -21.5t-21 -43.5t-28 -58l-32 -62q-15 -32 -29 -61t-24 -49
q-42 58 -64.5 127t-22.5 145q0 97 36.5 182.5t100 149t149 100.5t182.5 37z" />
    <glyph glyph-name="yonghuguanli2" unicode="&#xe628;" horiz-adv-x="1097" 
d="M530 893q64 -22 68 -23q75 -27 129 -116q52 -87 26 -174q-25 -82 -82 -136t-143 -63q-14 -1 -42.5 -3t-45.5 -3.5t-41 -6.5t-43 -14q-59 -25 -85 -43q-175 -114 -165 -349l3 -10h29h368q31 0 40 -24q3 -6 6.5 -12.5t9.5 -15t10 -13.5q-23 -2 -24 -2h-466q-28 0 -38 10
t-11 38q0 41 0.5 76.5t7 76t20.5 74.5q71 172 249 250q3 1 7 3t8.5 3.5t6.5 2.5q-46 50 -48 52q-48 57 -58 130t19.5 140t92.5 107q15 9 33 16.5t42 15.5t36 13h81zM488 446q81 -1 139 52.5t61 130.5q2 83 -55 138.5t-138 58.5q-78 2 -140 -51.5t-64 -133.5
q-2 -82 57.5 -138.5t139.5 -56.5zM890 -128q-6 4 -16 9t-16.5 9t-12.5 8q-26 22 -40 22t-40 -22q-20 -16 -35.5 -18t-37.5 10q-4 2 -29 16q-32 18 -37 29.5t3 46.5q5 24 -11 43t-44 21q-38 3 -40 37q-2 55 2 105q2 28 34 31q36 3 50.5 23.5t4.5 54.5t21 53q5 2 45 24
q25 14 40.5 12.5t38.5 -19.5q22 -19 36.5 -19t37.5 18q23 19 38.5 20t40.5 -13q18 -9 27 -15q31 -17 36 -28t-2 -45q-5 -26 10 -44.5t43 -21.5q40 -3 41 -38q2 -54 -2 -105q-2 -26 -33 -29q-35 -3 -51.5 -26.5t-4.5 -53.5q3 -7 2 -19t-6 -16q-12 -9 -93 -60zM679 307
q7 -54 -11.5 -88.5t-61.5 -45.5q-12 -3 -18 -10t-7 -12.5t-1 -18.5q0 -12 1.5 -18.5t7.5 -13t18 -8.5q25 -6 48 -30q38 -39 23 -104q13 -7 14 -8q26 -20 50 -1q45 34 86 20q10 -4 29 -15t24 -13q10 -5 18 -2q4 2 35 19q-9 49 10 86.5t60 47.5q17 4 22.5 13.5t5.5 27.5
t-5.5 28t-22.5 13q-15 2 -30 13q-57 44 -40 119q-2 2 -10 7t-11 7t-10.5 4.5t-12 2.5t-11.5 -2.5t-13 -7.5q-58 -45 -119 1q-26 20 -49 0q-1 0 -19 -11zM910 132q-1 -45 -32 -72.5t-74 -26.5q-46 2 -74.5 28.5t-28.5 72.5q0 45 31 72.5t74 26.5q45 -1 74.5 -28.5t29.5 -72.5
zM804 180q-20 -1 -33.5 -14.5t-13.5 -32.5q0 -20 14.5 -33.5t34.5 -13.5t33 14t13 33q1 20 -13 33.5t-35 13.5z" />
    <glyph glyph-name="Use" unicode="&#xe966;" 
d="M988 -81q-13 84 -54.5 159t-105.5 131q-101 88 -232 110q128 23 185 90t57 162q0 88 -43.5 163t-118.5 118.5t-163 43.5t-163 -43.5t-118.5 -118.5t-43.5 -163q0 -86 41 -159.5t112 -116.5q-126 -50 -208 -154q-18 -6 -50.5 -75t-44.5 -147q-1 -3 -1 -6q0 -17 12 -29
t29 -12q15 0 26.5 10t14.5 24q22 145 135 242t259.5 97t259 -97t134.5 -241q3 -15 14.5 -25t26.5 -10q3 0 6 1q15 2 25 13.5t10 26.5q0 3 -1 6v0zM269 570.5q0 100.5 71.5 172t172.5 71.5t172.5 -71.5t71.5 -172t-71.5 -172t-172.5 -71.5t-172.5 71.5t-71.5 172z" />
    <glyph glyph-name="yonghuzhinan3" unicode="&#xe690;" 
d="M512 818q-88 0 -168.5 -34.5t-138.5 -92.5t-92.5 -138.5t-34.5 -168.5t34.5 -168.5t92.5 -138.5t138.5 -92.5t168.5 -34.5t168.5 34.5t138.5 92.5t92.5 138.5t34.5 168.5t-34.5 168.5t-92.5 138.5t-138.5 92.5t-168.5 34.5zM512 -4q-105 0 -194.5 52t-141.5 141.5
t-52 194.5t52 194.5t141.5 141.5t194.5 52t194.5 -52t141.5 -141.5t52 -194.5t-52 -194.5t-141.5 -141.5t-194.5 -52zM724 620q-2 0 -4 -1l-295 -153l-148 -304q-2 -5 0.5 -9.5t7.5 -4.5q2 0 4 1l295 153l149 304q2 5 -1 9.5t-8 4.5zM450 412l87 -83l-171 -89zM565 365
l-83 79l161 84z" />
    <glyph glyph-name="xueshu" unicode="&#xe648;" 
d="M834 187h72v-124h-72v124zM502 712l-432 -129q-6 -1 -6 -7.5t6 -8.5l184 -54v-381l3 -3q21 -20 55 -36v0q23 -11 49 -18q69 -20 151 -20q112 0 192 34q3 2 8 4q34 16 55 36l3 3v381l64 19v-329h72v350l48 14q6 2 6 8.5t-6 7.5l-434 129q-4 1 -9 1t-9 -1zM723 575
l-211 -62l-211 62l211 63zM697 429q-22 -13 -55 -22q-59 -17 -130 -17h-2q-96 0 -162 29v0q-11 4 -21 10v62l175 -52q4 -1 9 -1t9 1l177 52v-62zM327 349q16 -7 34 -12q69 -20 151 -20q107 0 185 32v-44v0v-138q-22 -13 -55 -22q-58 -17 -127 -17h-3h-2q-96 0 -162 28v0
q-11 5 -21 11v182z" />
    <glyph glyph-name="industryconcern" unicode="&#xe8e7;" 
d="M512 870l-512 -371l196 -601h632l196 601zM787 -48h-550l-170 523l445 323l445 -323zM820 443l-283 207l-27 82l-54 -104l-253 -184l118 -363h366l50 -44l-25 75zM360 136l-94 288l114 84l-56 -108l309 -264h-273zM568 562l190 -138l-69 -213z" />
    <glyph glyph-name="nian" unicode="&#xe61f;" 
d="M822 726h-100v-98q0 -23 -16 -38.5t-38.5 -15.5t-38.5 15.5t-16 38.5v98h-202v-98q0 -23 -16 -38.5t-38 -15.5t-38 15.5t-16 38.5v98h-101q-51 0 -87.5 -36.5t-36.5 -87.5v-497q0 -51 36.5 -87.5t87.5 -36.5h620q51 0 87.5 36.5t36.5 87.5v497q0 51 -36.5 87.5
t-87.5 36.5zM884 105q0 -25 -18 -43.5t-44 -18.5h-620q-26 0 -44 18.5t-18 43.5v373h744v-373zM388 633q0 -13 -9.5 -22t-22 -9t-21.5 9t-9 22v124q0 13 9 22t21.5 9t22 -9t9.5 -22v-124zM698 633q0 -13 -9 -22t-22 -9t-22 9t-9 22v124q0 13 9 22t22 9t22 -9t9 -22v-124z
M354 336q24 25 51 75q17 33 34 29q22 -4 18 -25q-2 -3 -5 -6q-3 -7 -3 -8h206q20 -2 22 -22q0 -22 -20 -22h-101v-45h95q17 -2 20 -21q-1 -20 -19 -20h-96v-72h109q18 -1 18 -22q-2 -20 -19 -20h-108v-50q-2 -17 -22 -19q-22 0 -22 18v51h-152q-19 0 -20 20q1 21 20 22h34
v78q-3 36 38 35h80v45h-86q-21 -35 -42 -53q-21 -14 -35 -1q-12 14 5 33zM436 261v-62h76v72h-66q-11 -2 -10 -10z" />
    <glyph glyph-name="daxue1" unicode="&#xe625;" 
d="M512 896v0q-93 0 -177 -36t-144.5 -97t-97 -145t-36.5 -176q0 -167 108 -293.5t269 -154.5l71 -122l70 120q109 15 198.5 78t141.5 161t52 211q0 92 -36 176t-97 145t-145 97t-177 36v0zM772 207h-528v20h528v-20zM285 484v22h106v-24h-21v-189h-64v191h-21zM751 271v-21
h-486v21h486zM455 484v20h106v-20h-21v-191h-64v191h-21zM623 484v20h106v-20h-21v-191h-64v191h-21zM763 527h-511q-9 4 -9 11.5t9 12.5q6 4 69.5 50.5t124.5 91l61 44.5q245 -178 257 -186q8 -6 8.5 -13t-9.5 -11zM507.5 649q-15.5 0 -26.5 -11t-11 -26t11 -26t26.5 -11
t26 11t10.5 26t-10.5 26t-26 11z" />
    <glyph glyph-name="xueshuquan" unicode="&#xe611;" 
d="M564 295l-6 -3t-16 -5t-24.5 -4t-30.5 1.5t-35 9.5q-261 127 -257 127q-3 1 -6.5 -1t-3.5 -6v-268q0 -4 3 -6l262 -132h1q53 -29 113 0l226 118q4 2 4 6v259q0 4 -3.5 6.5t-7.5 0.5zM973 577l-417 191q-50 22 -99 -1l-409 -190q-14 -7 -14 -23t14 -22l407 -199
q24 -12 54 -12t54 11l300 141v-337q0 -10 6.5 -17t16.5 -7t16.5 7t6.5 17v360l69 36q14 6 11.5 22t-16.5 23z" />
    <glyph glyph-name="industryconcern-copy" unicode="&#xe968;" 
d="M512 870l-512 -371l196 -601h632l196 601zM787 -48h-550l-170 523l445 323l445 -323zM820 443l-283 207l-27 82l-54 -104l-253 -184l118 -363h366l50 -44l-25 75zM360 136l-94 288l114 84l-56 -108l309 -264h-273zM568 562l190 -138l-69 -213z" />
    <glyph glyph-name="Use-copy" unicode="&#xe969;" 
d="M988 -81q-13 84 -54.5 159t-105.5 131q-101 88 -232 110q128 23 185 90t57 162q0 88 -43.5 163t-118.5 118.5t-163 43.5t-163 -43.5t-118.5 -118.5t-43.5 -163q0 -86 41 -159.5t112 -116.5q-126 -50 -208 -154q-18 -6 -50.5 -75t-44.5 -147q-1 -3 -1 -6q0 -17 12 -29
t29 -12q15 0 26.5 10t14.5 24q22 145 135 242t259.5 97t259 -97t134.5 -241q3 -15 14.5 -25t26.5 -10q3 0 6 1q15 2 25 13.5t10 26.5q0 3 -1 6v0zM269 570.5q0 100.5 71.5 172t172.5 71.5t172.5 -71.5t71.5 -172t-71.5 -172t-172.5 -71.5t-172.5 71.5t-71.5 172z" />
    <glyph glyph-name="yonghufenxi-copy" unicode="&#xe96b;" 
d="M509 884q-102 0 -195 -39.5t-160 -106.5t-107 -160t-40 -195t40 -195t107 -160t160 -107t195 -40t195 40t160 107t106.5 160t39.5 195t-39.5 195t-106.5 160t-160 106.5t-195 39.5zM509 -94q-97 0 -185.5 37.5t-152.5 101.5t-101.5 152.5t-37.5 185.5t37.5 185.5
t101.5 152t152.5 101.5t185.5 38t185.5 -38t152 -101.5t101.5 -152t38 -185.5t-38 -185.5t-101.5 -152.5t-152 -101.5t-185.5 -37.5zM577 144q-38 0 -62 30q-16 19 -18.5 43.5t9.5 46.5q-51 38 -124 93q-17 -8 -35 -6q-20 -35 -37 -64q25 -33 6 -70q-8 -16 -23.5 -25
t-32.5 -9h-8q-42 6 -54 45q-10 31 9 57q23 32 62 26q20 36 34 60q-16 16 -20.5 38t4.5 42.5t29 32.5t43 11q22 -2 39.5 -16.5t23.5 -36.5q8 -27 -5 -52q57 -42 124 -92q20 10 42 8q45 79 88 152q-22 18 -29.5 46t1.5 55q10 28 34 45t53 17q36 0 63 -24.5t30 -60.5
t-19.5 -64.5t-58.5 -34.5q-16 -2 -30 1l-7 -12q-53 -92 -80 -138q35 -29 29 -73q-6 -48 -52 -65q-14 -6 -28 -6zM382 379q7 0 13 -5q74 -56 127 -95q13 -9 5 -24q-10 -16 -8.5 -34.5t13.5 -32.5q18 -22 45 -22q11 0 20 4q34 13 39 48q4 33 -23 55h-1q-13 9 -5 22
q27 46 82 142l8 14q7 11 19 8.5t25 -0.5q28 4 45 26t15 50q-2 27 -22.5 46t-48.5 19q-22 0 -40.5 -13.5t-26 -34.5t-1 -43t23.5 -35q13 -11 5 -25q-43 -73 -90 -154q-6 -11 -17 -11h-2q-17 2 -32 -6q-5 -3 -9 -3q-6 0 -11 4q-69 52 -129 96q-12 9 -4 22q11 19 5 39
q-5 16 -17 26t-28 11t-29.5 -7.5t-20.5 -22.5q-14 -33 12 -57q12 -11 4 -24q-16 -26 -36 -63q-6 -10 -16 -10h-4q-27 5 -43 -17q-12 -17 -6 -37q9 -27 37 -30q12 -2 24 4t18 18q13 25 -5 47q-8 11 -1 23q17 29 38 66q6 10 16 10h4q12 -2 24 4q5 2 9 2z" />
    <glyph glyph-name="tongjifenxi-copy-copy" unicode="&#xe96c;" 
d="M815 695q44 1 76 -29t36 -73q3 -44 -24 -78.5t-71 -41.5q-20 -3 -40 1q-6 2 -9 -4q-86 -148 -124 -214q-2 -3 -2 -4.5t0.5 -2.5t3 -2.5l2.5 -1.5q44 -35 37 -89q-7 -57 -61 -77q-29 -11 -58 -3t-48.5 31.5t-22 53.5t13.5 56q4 8 -3 13q-71 53 -174 130q-7 6 -14 2
q-21 -10 -42 -7q-8 2 -12 -6q-29 -51 -52 -90q-5 -8 1 -15q29 -38 7 -81q-10 -19 -30.5 -29.5t-41.5 -7.5q-48 6 -63 51q-12 39 15.5 70t67.5 24q8 -2 12 5q29 51 50 87q5 8 -2 14q-20 18 -25.5 44t5 50.5t33.5 38.5t50 12q26 -2 46 -18.5t28 -42.5q10 -34 -9 -65
q-3 -6 3 -11q80 -60 176 -131q5 -4 11 -1q24 13 52 11q8 -1 13 7q65 113 122 211q5 9 -2 14q-28 22 -38 56.5t2 67.5q11 34 40 54.5t65 20.5z" />
    <glyph glyph-name="daohanglandingdananniu-copy" unicode="&#xe96d;" 
d="M862.5 458q-13.5 0 -22.5 -9.5t-9 -23.5v-408q0 -33 -22.5 -57t-55.5 -24h-594q-34 0 -64.5 24.5t-30.5 56.5v596q0 33 31 62t64 29h340q14 0 23.5 9t9.5 23t-9.5 23t-23.5 9h-340q-66 0 -112.5 -44.5t-46.5 -110.5v-596q0 -64 46 -104.5t113 -40.5h594q65 0 103.5 39.5
t38.5 105.5v408q0 14 -9.5 23.5t-23 9.5zM994 819l-49 49q-28 28 -69.5 28t-69.5 -28l-92 -108l-490 -470v-12v-2l-62 -209l45 -40l198 70l3 -1h9l469 492l108 88q29 29 29 72t-29 71zM249 113l29 92l57 -58zM394 182l-85 85l438 436l82 -82zM947 726l-65 -65l-95 95l65 66
q10 9 23.5 9t23.5 -9l48 -49q10 -10 10 -23.5t-10 -23.5z" />
    <glyph glyph-name="tianchengzuo-copy" unicode="&#xe96e;" 
d="M732 515q5 1 9 2q20 5 14 37q-1 2 -1 3q0 -5 -4.5 -14t-13 -14t-20.5 8q-23 25 -42 40.5t-36 20.5t-21.5 6t-16.5 1q-7 0 -30.5 -7.5t-29.5 -4.5q-5 1 -8.5 10t-4.5 17l-1 8h11v17l-11 6v33h-13l-3 -34l-9 -6l-2 -16h14q0 -7 -2.5 -16t-5.5 -15l-3 -5q-52 16 -85 11
q-17 -3 -34 -14.5t-36 -29.5t-25 -23q-12 -7 -19.5 -2.5t-10.5 13.5l-3 10q-6 -11 0.5 -27.5t20.5 -18.5l-119 -255h-1q17 -25 51.5 -44t81.5 -20q19 -1 38 5.5t32 16t23.5 19.5t15.5 16.5l5 6.5l-116 256q4 2 7 5q5 3 24.5 21.5t36.5 25.5t44 7q26 0 43 -12.5t21 -25.5
l4 -13l-8 -286q3 -7 9 -12.5t11 -7.5l5 -3l-9 -1l-23 -3q-5 -30 -18 -58.5t-25 -41.5l-11 -14q18 -13 34.5 -17.5t55.5 -6.5q24 -1 45.5 4.5t31.5 11.5l9 6l-18 29l-24 -9q-26 -9 -42.5 -6t-24 8t-7.5 7q17 -5 36.5 -1.5t35.5 9.5t15 9l-12 34l-12 -8q-11 -9 -35 0
q-9 4 -1 5q7 1 17 7t16 11l6 6q-2 3 -6.5 23.5t-8.5 38.5l-4 19q1 234 1 247q0 11 15.5 29t35.5 23q42 10 81 -28q28 -27 53 -29l-121 -259h-1q17 -25 51.5 -44t81.5 -20q19 -1 38 5.5t32 16t23.5 19.5t15.5 16.5l5 6.5zM202 256l110 241l-2 -241h-108zM319 256v239
l105 -239h-105zM615 256l110 241l-2 -241h-108zM732 256v239l105 -239h-105z" />
    <glyph glyph-name="shujuyuan-copy" unicode="&#xe96f;" 
d="M48 736q0 44 62 80.5t169 58t234.5 21.5t234 -21.5t167.5 -58t61 -80.5t-62 -81t-168 -58.5t-232.5 -21.5t-233.5 21.5t-169.5 58.5t-62.5 81zM822 674q46 15 83 40q16 12 16 18.5t-16 18.5q-24 21 -83 40q-125 43 -308.5 43t-308.5 -43q-60 -14 -83 -37q-19 -14 -19 -18
q0 -7 16 -19q31 -26 83 -43q125 -43 308 -43q187 0 312 43zM48 702v-636q26 -84 155 -137.5t317 -53.5q189 0 324 65q37 18 64 37q7 4 16 12t15 13q9 6 9.5 18.5t-6.5 21.5q-6 9 -18.5 9.5t-21.5 -6.5q-3 -3 -11.5 -10.5t-16.5 -11.5q-9 -8 -55 -34q-117 -58 -299 -58
q-168 0 -282.5 44t-134.5 107v647q0 12 -8 20t-19 8q-12 0 -20 -6.5t-8 -17.5v-31v0zM918 156q0 -12 8 -20t19.5 -8t19.5 8t8 20l3 561q0 12 -8 20t-19.5 8t-19.5 -8t-8 -20zM393 128q167 -19 316 9t249 102q6 4 7 12t-4 13q-5 6 -12.5 7t-12.5 -4q-93 -71 -235.5 -97.5
t-301.5 -7.5q-85 10 -157 31.5t-111.5 46t-36.5 45.5q0 17 -15 22q-17 0 -22 -16q-7 -54 90.5 -100.5t245.5 -62.5zM393 347q167 -19 316 9t249 102q6 4 7 12t-4 13q-5 6 -12.5 7t-12.5 -4q-93 -71 -235.5 -97.5t-301.5 -7.5q-85 10 -157.5 32t-111.5 47.5t-36 46.5
q0 17 -15 22q-17 0 -22 -15q-7 -57 90 -103.5t246 -63.5zM807 510v0q0 -11 8 -19t19.5 -8t19.5 8t8 19v0v0q0 12 -8 20t-19.5 8t-19.5 -8t-8 -20v0zM807 291v0q0 -11 8 -19t19.5 -8t19.5 8t8 19v0v0q0 12 -8 20t-19.5 8t-19.5 -8t-8 -20v0zM807 76v0q0 -12 8 -20t19.5 -8
t19.5 8t8 20v0v0q0 11 -8 19t-19.5 8t-19.5 -8t-8 -19v0z" />
    <glyph glyph-name="sanyuan-copy" unicode="&#xe970;" 
d="M47 384q0 -60 43 -103t103 -43t102.5 43t42.5 103t-42.5 103t-102.5 43t-103 -43t-43 -103zM373 384q0 -60 43 -103t103 -43t103 43t43 103t-43 103t-103 43t-103 -43t-43 -103zM700 384q0 -60 42.5 -103t102.5 -43t103 43t43 103t-43 103t-103 43t-102.5 -43t-42.5 -103
z" />
    <glyph glyph-name="lingsheng-copy" unicode="&#xe971;" 
d="M982 59q-1 -2 -3 -5.5t-3 -5t-3 -3t-4 -2t-6 -0.5h-269q-6 -72 -62 -121.5t-132.5 -49.5t-132.5 49.5t-62 121.5h-244q-5 0 -8 1.5t-4 2.5t-3.5 5.5t-3.5 6.5q-11 17 -1 34q40 74 65 133.5t35.5 98t29.5 117.5q7 34 13 57l5 23q7 27 10.5 41.5t11.5 40t15 41t20 38t27 37
t34.5 31.5t44.5 28.5t55.5 22t67.5 16.5v41q0 15 11 26t26 11t25.5 -11t10.5 -26v-41q37 -6 68.5 -16.5t55.5 -22t44.5 -28.5t34.5 -31.5t26.5 -37t20 -38t15.5 -41t11.5 -40t9.5 -41.5l6 -23q5 -22 13 -57q19 -79 29.5 -117.5t35 -98t65.5 -133.5q9 -17 -1 -34zM499.5 -58
q47.5 0 83 29t41.5 72h-249q6 -43 41.5 -72t83 -29zM783 427q-9 41 -13 56l-6 24q-6 26 -9 39.5t-10 37t-13.5 35.5t-17 31t-22 29.5t-29 24t-37.5 21.5t-46.5 15.5t-58.5 11.5q-6 -2 -9 -2t-10 2q-31 -4 -57.5 -11.5t-47 -15.5t-37.5 -21.5t-28.5 -24t-22.5 -29.5t-17 -31
t-13 -35.5t-10.5 -37t-9.5 -39.5l-5 -24q-4 -15 -14 -56q-18 -79 -26 -109t-28.5 -86t-51.5 -116h756q-31 60 -52 116t-28.5 86t-26.5 109z" />
    <glyph glyph-name="date-copy" unicode="&#xe972;" 
d="M955 668v-677q0 -27 -18.5 -45t-45.5 -18h-749q-27 0 -45 18t-18 45v677q0 27 18 45t45 18h73v54q0 36 27 63.5t63 27.5h36q36 0 63 -27.5t27 -63.5v-54h208v54q0 36 27 63.5t63 27.5h36q36 0 63 -27.5t27 -63.5v-54h73q27 0 45 -18q3 -4 -1 -11t-10.5 -17t-6.5 -17z
M142 379h154v154h-154v-154zM142 172h154v171h-154v-171zM142 -18h154v153h-154v-153zM350 632v153q0 7 -1 8t-8 1l-9 9h-36q-7 0 -8 -1t-1 -8l-9 -9v-153q0 -7 1 -8t8 -1l9 -9h36q7 0 8 1t1 8q0 4 2 6t5 3h2zM332 379h171v154h-171v-154zM332 172h171v171h-171v-171z
M332 -18h171v153h-171v-153zM530 379h172v154h-172v-154zM530 172h172v171h-172v-171zM530 -18h172v153h-172v-153zM756 632v153q0 7 -1 8t-8 1l-9 9h-36q-7 0 -8 -1t-1 -8l-9 -9v-153q0 -7 1 -8t8 -1q4 0 6 -2.5t3 -4.5v-2h36q7 0 8 1t1 8q4 0 6.5 2t2.5 5v2zM738 379h153
v154h-153v-154zM738 172h153v171h-153v-171zM738 -18h153v153h-153v-153z" />
    <glyph glyph-name="tianchengzuo2-copy" unicode="&#xe973;" 
d="M732 515q5 1 9 2q20 5 14 37q-1 2 -1 3q0 -5 -4.5 -14t-13 -14t-20.5 8q-23 25 -42 40.5t-36 20.5t-21.5 6t-16.5 1q-7 0 -30.5 -7.5t-29.5 -4.5q-5 1 -8.5 10t-4.5 17l-1 8h11v17l-11 6v33h-13l-3 -34l-9 -6l-2 -16h14q0 -7 -2.5 -16t-5.5 -15l-3 -5q-52 16 -85 11
q-17 -3 -34 -14.5t-36 -29.5t-25 -23q-12 -7 -19.5 -2.5t-10.5 13.5l-3 10q-6 -11 0.5 -27.5t20.5 -18.5l-119 -255h-1q17 -25 51.5 -44t81.5 -20q19 -1 38 5.5t32 16t23.5 19.5t15.5 16.5l5 6.5l-116 256q4 2 7 5q5 3 24.5 21.5t36.5 25.5t44 7q26 0 43 -12.5t21 -25.5
l4 -13l-8 -286q3 -7 9 -12.5t11 -7.5l5 -3l-9 -1l-23 -3q-5 -30 -18 -58.5t-25 -41.5l-11 -14q18 -13 34.5 -17.5t55.5 -6.5q24 -1 45.5 4.5t31.5 11.5l9 6l-18 29l-24 -9q-26 -9 -42.5 -6t-24 8t-7.5 7q17 -5 36.5 -1.5t35.5 9.5t15 9l-12 34l-12 -8q-11 -9 -35 0
q-9 4 -1 5q7 1 17 7t16 11l6 6q-2 3 -6.5 23.5t-8.5 38.5l-4 19q1 234 1 247q0 11 15.5 29t35.5 23q42 10 81 -28q28 -27 53 -29l-121 -259h-1q17 -25 51.5 -44t81.5 -20q19 -1 38 5.5t32 16t23.5 19.5t15.5 16.5l5 6.5zM202 256l110 241l-2 -241h-108zM319 256v239
l105 -239h-105zM615 256l110 241l-2 -241h-108zM732 256v239l105 -239h-105z" />
    <glyph glyph-name="ping-copy" unicode="&#xe974;" 
d="M837 577l12 2q27 7 21 52l-2 8v-1q0 -7 -6.5 -20t-19 -20.5t-30.5 12.5q-31 35 -59 57t-49.5 30t-32.5 10t-25 2h-4q-11 0 -45.5 -10.5t-43.5 -7.5q-7 3 -12 16t-7 24l-1 12l16 1v24l-17 10v48h-18l-4 -50l-15 -9l-2 -23h21q0 -11 -4 -24.5t-8 -21.5l-5 -8q-1 1 -10 4
t-12.5 4t-13 3.5t-15.5 3.5t-16.5 2.5t-18.5 1.5t-18.5 -0.5t-20.5 -1.5q-25 -4 -50 -21t-53 -44t-37 -34q-17 -11 -28 -4t-15 21l-5 14q-9 -16 0.5 -41t29.5 -27l-175 -376h-1q25 -36 75.5 -64t119.5 -30q29 -1 57 8.5t47 23.5t34.5 28.5t23 24l7.5 9.5l-171 378q5 2 10 6
q12 9 30.5 26.5t31 27t37.5 18t55 8.5q25 0 44.5 -7.5t29.5 -18.5t16.5 -22t8.5 -19l2 -7l-12 -422q4 -10 13 -18.5t16 -11.5l7 -3l-13 -3l-33 -3q-14 -94 -76 -164l-3 -4q26 -19 50 -25.5t82 -10.5q35 -2 66.5 6.5t46 17t14.5 9.5l-26 43q-3 -2 -12 -5.5t-16.5 -6
l-7.5 -2.5q-38 -14 -62.5 -9t-35.5 12t-11 9q25 -7 53.5 -1.5t52 14.5t21.5 13l-17 51q-2 -2 -6.5 -5.5t-7.5 -5.5l-4 -2q-15 -11 -48 0q-15 5 -7 7q1 0 3 1q10 1 24.5 9.5t23.5 17.5l9 8q-3 5 -10 35t-12.5 57t-5.5 28q1 345 1 363q0 16 23.5 43t52.5 34q62 15 119 -41
q41 -40 77 -43l-178 -382h-1q25 -36 75.5 -64t120.5 -30q28 -1 56 8.5t47 23.5t34.5 28.5t23 24l7.5 9.5zM56 195l162 355l-3 -355h-159zM228 195v352l154 -352h-154zM664 195l162 355l-3 -355h-159zM837 195v352l153 -352h-153z" />
    <glyph glyph-name="yuan-copy" unicode="&#xe975;" 
d="M51 735.5q0 43.5 61.5 80.5t167.5 58.5t232 21.5t232 -21.5t167.5 -58.5t61.5 -80.5t-61.5 -80.5t-167.5 -58.5t-232 -21.5t-232 21.5t-167.5 58.5t-61.5 80.5zM819 674q57 21 82 41q6 5 9.5 9t3.5 6l1 2q-4 10 -14 17q-17 18 -82 41q-127 45 -307 45q-174 0 -307 -45
q-65 -16 -82 -37q-17 -12 -17 -17q0 -8 17 -21q35 -28 82 -41q127 -44 307 -44t307 44zM51 701v-638q26 -85 154 -138t314 -53q191 0 321 65q59 34 65 37q4 3 13 11.5t17 12.5q10 8 11 19.5t-7 21.5t-19.5 11t-21.5 -7q-5 -4 -9.5 -9t-8.5 -7.5t-10 -4.5q-7 -8 -27.5 -19
t-26.5 -15q-116 -58 -297 -58q-165 0 -279.5 44.5t-133.5 105.5v649q0 12 -8.5 19.5t-18.5 7.5q-11 0 -19.5 -7t-8.5 -17v-31v0zM915 152q0 -12 8 -19.5t19 -7.5q10 0 18.5 8.5t8.5 18.5l4 563q0 12 -8.5 19.5t-19.5 7.5q-10 0 -18.5 -8.5t-8.5 -18.5zM393 125
q166 -19 314 9t245 103q8 5 8.5 12t-4.5 12q-5 8 -12 8.5t-12 -4.5q-93 -71 -234.5 -98t-298.5 -8q-84 10 -156 31.5t-111.5 46t-35.5 45.5q0 13 -14 20q-15 0 -21 -17q-7 -50 89.5 -96t242.5 -64zM393 346q166 -18 314 10t245 103q8 5 8.5 12t-4.5 12q-5 7 -12 8t-12 -5
q-93 -70 -234.5 -97t-298.5 -8q-84 10 -156 31.5t-111.5 47t-35.5 47.5q0 14 -14 20q-15 0 -21 -17q-7 -55 89 -101.5t243 -62.5zM806 510q0 -12 8 -19.5t19 -7.5q10 0 18.5 8.5t8.5 18.5q0 13 -8 20.5t-19 7.5q-10 0 -18.5 -8.5t-8.5 -19.5zM806 288q0 -12 8 -19.5t19 -7.5
q10 0 18.5 8.5t8.5 18.5q0 13 -8 20.5t-19 7.5q-12 2 -19.5 -6t-7.5 -22zM806 73q0 -12 8 -19.5t19 -7.5q10 0 18.5 8.5t8.5 18.5q0 13 -8 20.5t-19 7.5q-10 0 -18.5 -8.5t-8.5 -19.5z" />
    <glyph glyph-name="guanyuwomen4" unicode="&#xe68f;" 
d="M854 563.5q0 77.5 -55 132.5t-132.5 55t-132.5 -55t-55 -132.5t55 -132.5t132.5 -55t132.5 55t55 132.5zM667 710q42 0 77 -22q-16 -2 -30 -5q-26 -6 -65 -24q-32 -14 -44 -14q-16 1 -43 21q43 44 105 44zM666.5 417q-60.5 0 -103.5 43t-43 103q0 37 18 70q37 -27 65 -29
h4q21 0 59 18q36 16 58 21q38 9 66 -1q23 -36 23 -79q0 -60 -43 -103t-103.5 -43zM778 373q-29 -40 -96 -47q17 -5 27.5 -20t10.5 -34q0 -33 -30 -50l38 -205h243q0 114 -54 212.5t-139 143.5zM644 327q-64 6 -93 44q-84 -46 -136.5 -144t-52.5 -210h238l34 206
q-29 16 -29 49q0 19 11 34t28 21zM418 611.5q0 57.5 -40.5 98.5t-98 41t-98.5 -41t-41 -98.5t41 -98.5t98.5 -41t98 41t40.5 98.5zM279 720q31 0 57 -16q-11 -1 -22 -4q-19 -4 -48 -17q-23 -11 -32 -10q-12 0 -32 15q31 32 77 32zM279 503q-45 0 -77 32t-32 77q0 27 14 51
q27 -19 48 -21h1.5h1.5q15 0 44 13q26 12 42 16q29 7 49 -1q18 -27 18 -59q0 -44 -32 -76t-77 -32zM262 436q-47 5 -69 33q-62 -34 -101 -106.5t-39 -156.5h177l25 153q-22 12 -22 37q0 13 8.5 24.5t20.5 15.5zM452 386q-38 57 -90 84q-22 -30 -72 -34q13 -5 21 -16t8 -24
q0 -25 -22 -38l28 -152h4q42 109 123 180z" />
    <glyph glyph-name="ss-caidan2-copy" unicode="&#xe976;" 
d="M161 137v0q0 17 11.5 28.5t28.5 11.5l688 1q17 0 28.5 -12t11.5 -28.5t-11.5 -28t-28.5 -12.5h-688v0q-17 0 -28.5 11.5t-11.5 28.5zM353 384v0q0 16 12 28t28 12h496v0q17 0 29 -11.5t12 -28t-12 -28.5t-29 -12h-495h-1q-16 0 -28 11.5t-12 28.5zM64 656v0
q0 17 11.5 28.5t28.5 11.5l816 1v0q17 0 28.5 -11.5t11.5 -28.5t-11.5 -28.5t-28.5 -11.5l-816 -1v0q-17 0 -28.5 12t-11.5 28z" />
    <glyph glyph-name="passageoftime-copy" unicode="&#xe977;" 
d="M1018 454q-13 13 -20 13h-64q-29 165 -159 274.5t-301 109.5q-95 0 -181.5 -37t-149 -100t-100 -149.5t-37.5 -180.5t37.5 -180.5t100 -149.5t149 -100t181.5 -37q125 0 232.5 63t170.5 174q9 14 5.5 31t-18.5 26q-14 10 -31 6t-27 -19q-53 -87 -143 -139.5t-189 -52.5
q-104 0 -192.5 52t-140 140.5t-51.5 192t51.5 192t140 140t192.5 51.5q133 0 237.5 -84t133.5 -210h-64q-7 0 -19 -13q-3 -3 -3 -7.5t1.5 -10.5t1.5 -7l108 -128q7 -7 19.5 -7t19.5 7l109 128v12zM473.5 742q-18.5 0 -31.5 -11.5t-13 -26.5v-256q-32 -32 -32 -64
q0 -30 22 -53.5t55 -23.5q19 0 32 7l147 -84q6 -6 19 -6q11 0 22.5 5t15.5 14q10 15 6 31.5t-18 26.5l-148 89q0 19 -8.5 33t-23.5 19v262q0 15 -13 26.5t-31.5 11.5zM473.5 352q-14.5 0 -23 9t-8.5 23t8.5 23t23 9t23.5 -9t9 -23t-9 -23t-23.5 -9z" />
    <glyph glyph-name="daohanglandingdananniu-copy1" unicode="&#xe978;" 
d="M862.5 458q-13.5 0 -22.5 -9.5t-9 -23.5v-408q0 -33 -22.5 -57t-55.5 -24h-594q-34 0 -64.5 24.5t-30.5 56.5v596q0 33 31 62t64 29h340q14 0 23.5 9t9.5 23t-9.5 23t-23.5 9h-340q-66 0 -112.5 -44.5t-46.5 -110.5v-596q0 -64 46 -104.5t113 -40.5h594q65 0 103.5 39.5
t38.5 105.5v408q0 14 -9.5 23.5t-23 9.5zM994 819l-49 49q-28 28 -69.5 28t-69.5 -28l-92 -108l-490 -470v-12v-2l-62 -209l45 -40l198 70l3 -1h9l469 492l108 88q29 29 29 72t-29 71zM249 113l29 92l57 -58zM394 182l-85 85l438 436l82 -82zM947 726l-65 -65l-95 95l65 66
q10 9 23.5 9t23.5 -9l48 -49q10 -10 10 -23.5t-10 -23.5z" />
    <glyph glyph-name="wenhao-copy" unicode="&#xe979;" 
d="M921 384q0 111 -54.5 205.5t-149 149t-205.5 54.5t-205.5 -54.5t-149 -149t-54.5 -205.5t54.5 -205.5t149 -149t205.5 -54.5q136 0 246 83q5 6 5 12q0 8 -5 13t-13 5t-13 -5v0q-99 -73 -220 -73q-100 0 -185.5 50t-135 135t-49.5 186t49.5 186.5t135 135t186 49.5
t186 -49.5t135 -135t49.5 -186.5q0 -93 -42 -173v0q-1 -4 -1 -6q0 -7 5.5 -12.5t12.5 -5.5q13 0 17 12v0q46 90 46 188zM465 175v0q0 -13 9.5 -22.5t23 -9.5t23 9.5t9.5 22.5v0q0 13 -9.5 22.5t-23 9.5t-23 -9.5t-9.5 -22.5zM576 379q21 11 32 18t27 20.5t23.5 32.5t7.5 44
q0 58 -45.5 95t-117.5 37q-53 0 -95.5 -27.5t-58.5 -72.5q-11 -30 -5 -56q2 -9 9.5 -13.5t16 -2.5t13.5 9.5t3 16.5q-3 14 3 31q11 30 41 51t73 21q53 0 86.5 -25t33.5 -64q0 -28 -15 -43t-52 -33q-18 -10 -28 -16t-24.5 -18t-21 -27.5t-6.5 -35.5v-53q0 -9 6 -15.5t15 -6.5
t15.5 6.5t6.5 15.5v53q0 19 12.5 30.5t44.5 27.5z" />
    <glyph glyph-name="sanyuan-copy-copy" unicode="&#xe97c;" 
d="M41 384q0 -44 31 -74.5t74.5 -30.5t74.5 30.5t31 74.5t-31 74.5t-74.5 30.5t-74.5 -30.5t-31 -74.5zM294 384q0 -95 67 -162t162 -67t162 67t67 162t-67 162t-162 67t-162 -67t-67 -162zM782 384q0 -44 31 -74.5t74.5 -30.5t74.5 30.5t31 74.5t-31 74.5t-74.5 30.5
t-74.5 -30.5t-31 -74.5z" />
    <glyph glyph-name="sanyuan-copy-copy-copy" unicode="&#xe97d;" 
d="M41 384q0 -44 31 -74.5t74.5 -30.5t74.5 30.5t31 74.5t-31 74.5t-74.5 30.5t-74.5 -30.5t-31 -74.5zM294 384q0 -95 67 -162t162 -67t162 67t67 162t-67 162t-162 67t-162 -67t-67 -162zM782 384q0 -44 31 -74.5t74.5 -30.5t74.5 30.5t31 74.5t-31 74.5t-74.5 30.5
t-74.5 -30.5t-31 -74.5z" />
    <glyph glyph-name="zhongzhi" unicode="&#xe692;" 
d="M948 559l-19 191q-1 13 -11 21.5t-23.5 7t-22 -11.5t-6.5 -23l8 -80q-68 84 -165 127.5t-204.5 38.5t-202.5 -60q-79 -45 -133 -117t-76 -154t-11.5 -171.5t56 -168.5t118 -133t154 -76t171 -11t168.5 56q81 47 137 124l-47 45q-50 -72 -122 -113q-67 -39 -144 -48.5
t-147 9.5t-132 65t-101 114t-48 144.5t9.5 146.5t65 132t113.5 101q90 51 190.5 51.5t188.5 -48.5t141 -136l-131 -13q-13 -1 -21.5 -11.5t-7 -23.5t11.5 -21.5t24 -7.5l191 19q13 1 21.5 11.5t6.5 23.5zM881 588v-3l-7 -1z" />
  </font>
</defs>
</svg>
